<svg xmlns="http://www.w3.org/2000/svg" width="53.871" height="53.871" viewBox="0 0 53.871 53.871">
  <g id="icon-user" transform="translate(-0.025 0.309)">
    <circle id="Oval" cx="26.935" cy="26.935" r="26.935" transform="translate(0.025 -0.309)" fill="#fff" opacity="0.15"/>
    <g id="Group_2655" data-name="Group 2655" transform="translate(-7.686 -4.947)">
      <path id="Path_2330" data-name="Path 2330" d="M41.333,44.985h-5.8V37.313A10.292,10.292,0,0,0,44.712,27.1v-.159a21.367,21.367,0,0,0-2.7-9.581,1.055,1.055,0,0,0-.914-.557H27.578c-.04,0-.08,0-.08.04-.08.04-.08.04-.119.04s-.04.04-.08.04a.139.139,0,0,0-.08.04c-.04,0-.04.04-.08.08l-.08.08-.08.08c-.04.04-.04.08-.08.119v.04a19.655,19.655,0,0,0-2.7,9.62V27.1a10.292,10.292,0,0,0,9.183,10.217v7.712h-5.8a1.073,1.073,0,0,0,0,2.147H41.372A1.069,1.069,0,0,0,42.446,46.1,1.138,1.138,0,0,0,41.333,44.985Zm-12.88-26H40.418a20.311,20.311,0,0,1,2.067,7h-16.1A18.854,18.854,0,0,1,28.453,18.986ZM26.425,28.13h16.06a8.1,8.1,0,0,1-16.06,0Z" fill="#fff"/>
    </g>
  </g>
</svg>
