<svg id="Layer_2" data-name="Layer 2" xmlns="http://www.w3.org/2000/svg" width="26.542" height="19.311" viewBox="0 0 26.542 19.311">
  <g id="Layer_1" data-name="Layer 1" transform="translate(0 0)">
    <path id="Path_2334" data-name="Path 2334" d="M17.8,19.305l-.576-.483c-.3-.247-7.331-6.155-9.13-9.935a5.486,5.486,0,0,1-.5-2.123A6.808,6.808,0,0,1,10.78.838c2.028-1.229,4.549-1.107,7.108.342,2.553-1.449,5.08-1.571,7.119-.356a6.816,6.816,0,0,1,3.185,5.924,5.367,5.367,0,0,1-.5,2.139c-1.81,3.785-9,9.688-9.306,9.953ZM13.819,1.814a4.061,4.061,0,0,0-2.123.573A5,5,0,0,0,9.4,6.69a3.493,3.493,0,0,0,.029.377A3.389,3.389,0,0,0,9.729,8.1c1.351,2.84,6.37,7.336,8.074,8.825,1.744-1.481,6.872-5.988,8.228-8.825a3.562,3.562,0,0,0,.326-1.415,5.011,5.011,0,0,0-2.285-4.305c-1.47-.876-3.291-.746-5.279.374l-.905.926-.9-.924a6.521,6.521,0,0,0-3.172-.948Z" transform="translate(-5.577 0.005)" fill="#fff"/>
    <path id="Path_2335" data-name="Path 2335" d="M9.738,24.346,8.6,20.6,7.923,22.09H.65a.65.65,0,0,1,0-1.3H7.084l1.752-3.87,1.29,4.247,2.349-3.931L13.8,21.007l2.264-2.92,1.8,2.025h8.024a.65.65,0,0,1,0,1.3H17.273l-1.149-1.287L13.359,23.7l-1.2-3.408Z" transform="translate(0 -12.428)" fill="#fff"/>
  </g>
</svg>
