<svg xmlns="http://www.w3.org/2000/svg" width="15.754" height="21.118" viewBox="0 0 15.754 21.118"><defs><style>.a{fill:#1eb5fc;fill-rule:evenodd;}</style></defs><g transform="translate(-0.044 -0.5)"><path class="a" d="M12.819,11.537a5.535,5.535,0,1,1-10.346.329,3.723,3.723,0,0,1,.732-1.6c.927-1.338,4.642-5.932,4.642-5.932s3.27,4.218,4.4,5.932a4.774,4.774,0,0,1,.575,1.273Zm2.375-.826a7.877,7.877,0,1,1-14.723.466,5.265,5.265,0,0,1,1.042-2.27C2.833,7.01,8.12.5,8.12.5s4.654,5.977,6.256,8.407a6.751,6.751,0,0,1,.818,1.8Zm-5.68,4.277c1-.853,1.21-2.172,1.519-2.56a.808.808,0,0,1,1.369.531,5.77,5.77,0,0,1-1.791,3.263,5.254,5.254,0,0,1-2.874,1.47.864.864,0,0,1-.72-1.484C7.524,15.784,8.509,15.84,9.514,14.988Z" transform="translate(0)"/></g></svg>