<svg xmlns="http://www.w3.org/2000/svg" width="20.048" height="19.483" viewBox="0 0 20.048 19.483"><defs><style>.a{fill:#caf369;stroke:#caf369;stroke-miterlimit:10;}</style></defs><g transform="translate(-1.059 -7.38)"><g transform="translate(1.568 7.88)"><g transform="translate(0)"><path class="a" d="M10.758,25.959c-.35-.282-8.6-6.956-9.167-12.138a6.142,6.142,0,0,1,1.579-4.44,4.135,4.135,0,0,1,3.1-1.5c1.6,0,3.206.991,4.767,2.947,1.082-1.429,2.663-2.891,4.6-2.891a4.576,4.576,0,0,1,3.4,1.7,5.789,5.789,0,0,1,1.53,4.2c-.682,5.157-8.817,11.842-9.163,12.124l-.323.263Zm2.525-10.481h5.743a6.833,6.833,0,0,0,.522-1.781,4.792,4.792,0,0,0-1.283-3.383,3.565,3.565,0,0,0-2.628-1.351c-1.388,0-2.829,1.043-4.164,3.017l-.409.607-.432-.592C9.161,9.975,7.651,8.908,6.268,8.908a3.178,3.178,0,0,0-2.332,1.16A5.13,5.13,0,0,0,2.613,13.71a7.088,7.088,0,0,0,.728,2.3l3.52.019L8.879,12.48l1-.181.078.362,1.563,7.285Zm-2.332,6.673L9.2,13.991l-1.824,3.2-3.37.014a38.1,38.1,0,0,0,7.07,7.682c1.2-1.024,5.431-4.779,7.438-8.384H14.048l-2.881,6.847Z" transform="translate(-1.568 -7.88)"/></g></g></g></svg>