<svg xmlns="http://www.w3.org/2000/svg" width="491.384" height="498.872" viewBox="0 0 491.384 498.872"><defs><style>.a{fill:rgba(62,193,255,0.63);opacity:0.45;}.b{fill:#173d7a;}.c{fill:#396caa;}.d{fill:#84c0fb;}.e{fill:#c13d1a;}.f{fill:rgba(6,72,98,0.81);}.g{fill:#ef602e;}.h{fill:#064862;}.i{fill:rgba(255,255,255,0.61);}.j{fill:rgba(255,74,49,0.1);}.k{fill:#ff7e6d;}.l{fill:#ff563e;}.m{fill:#d4ecff;}.n{fill:rgba(171,228,255,0.77);}.o{fill:#4b80d5;}.p{fill:rgba(194,236,255,0.27);}.q{fill:#5793ce;}.r{fill:#ffc2b0;}.s{fill:#fff;}.t{fill:#ea9c92;}.u{fill:#274f89;}.v{fill:#ff4a31;}.w{fill:#b70083;}.x{fill:#d3008d;}.y{fill:#ff2c9c;}</style></defs><g transform="translate(322.343 173.982)"><g transform="translate(27.311)"><path class="a" d="M379.526,192.837l23.679-13.515-23.679-13.515-23.678,13.515h0L332.17,192.837l23.678,13.515h0l23.678,13.515,23.679-13.515-23.679-13.515Z" transform="translate(-332.17 -48.033)"/><path class="b" d="M361.382,204.017V104.907l23.679-13.515V190.5Z" transform="translate(-314.026 -77.878)"/><path class="c" d="M370.454,104.907,346.776,91.392V190.5l23.678,13.515Z" transform="translate(-323.098 -77.878)"/><path class="d" d="M394.133,96.474,370.454,82.96,346.776,96.474l23.678,13.515Z" transform="translate(-323.098 -82.96)"/></g><g transform="translate(0 34.545)"><path class="e" d="M346.776,202.286v-72.08l23.678-13.515v72.08Z" transform="translate(-323.098 -103.177)"/><path class="f" d="M355.848,130.206,332.17,116.691v72.08l23.678,13.515Z" transform="translate(-332.17 -103.177)"/><path class="g" d="M379.526,121.773l-23.678-13.515L332.17,121.773l23.678,13.515Z" transform="translate(-332.17 -108.258)"/><path class="h" d="M346.776,202.286v-72.08l23.678-13.515v72.08Z" transform="translate(-323.098 -103.177)"/><path class="d" d="M379.526,121.773l-23.678-13.515L332.17,121.773l23.678,13.515Z" transform="translate(-332.17 -108.258)"/></g><g transform="translate(82.347 92.595)"><path class="b" d="M361.382,198.861V158.316L385.061,144.8v40.545Z" transform="translate(-337.704 -131.287)"/><path class="c" d="M370.454,158.316,346.776,144.8v40.545l23.678,13.515Z" transform="translate(-346.776 -131.287)"/><path class="d" d="M394.133,149.883l-23.679-13.515-23.678,13.515L370.454,163.4Z" transform="translate(-346.776 -136.368)"/></g></g><g transform="translate(470.083 266.525)"><path class="i" d="M0,0,2.807-.008,2.784,8.227l-2.807.008Z" transform="translate(20.199 0) rotate(75.627)"/><path class="i" d="M0,0,2.807-.008,2.784,8.227l-2.807.008Z" transform="translate(16.127 3.927) rotate(75.624)"/><path class="i" d="M0,0,2.807-.008,2.784,8.227l-2.807.008Z" transform="translate(12.055 7.854) rotate(75.624)"/><path class="i" d="M0,0,2.807-.008,2.784,8.227l-2.807.008Z" transform="translate(7.983 11.781) rotate(75.627)"/></g><g transform="translate(85.548 152.935)"><path class="j" d="M462.037,354.2l18.637-10.638L499.312,354.2l-18.637,10.638Z" transform="translate(-462.037 -198.431)"/><path class="j" d="M486.441,339.922l18.637-10.638,18.637,10.638L505.078,350.56Z" transform="translate(-446.88 -207.036)"/><path class="j" d="M510.77,325.985l18.638-10.638,18.637,10.638-18.637,10.638Z" transform="translate(-431.768 -215.435)"/><g transform="translate(50.576)"><g transform="translate(32.789 44.964)"><path class="e" d="M501.888,349.724V302.7l-15.447-8.817v47.023Z" transform="translate(-486.441 -293.884)"/><path class="k" d="M497.937,302.7l15.447-8.817v47.023l-15.447,8.817Z" transform="translate(-482.49 -293.884)"/><path class="l" d="M501.888,349.724V302.7l-15.447-8.817v47.023Z" transform="translate(-486.441 -293.884)"/></g><g transform="translate(0 75.685)"><path class="l" d="M477.484,358.917v-26.45l-15.447-8.817V350.1Z" transform="translate(-462.037 -314.833)"/><path class="k" d="M473.534,332.467l15.447-8.817V350.1l-15.447,8.817Z" transform="translate(-458.086 -314.833)"/><path class="l" d="M462.037,325.829l15.447-8.817,15.447,8.817-15.447,8.817Z" transform="translate(-462.037 -317.012)"/></g><g transform="translate(65.479)"><path class="l" d="M526.218,340.144V275.488l-15.447-8.817v64.656Z" transform="translate(-510.77 -257.854)"/><path class="k" d="M522.267,275.488l15.447-8.817v64.656l-15.447,8.817Z" transform="translate(-506.82 -257.854)"/><path class="l" d="M510.77,268.85l15.447-8.817,15.447,8.817-15.447,8.817Z" transform="translate(-510.77 -260.034)"/></g><path class="l" d="M486.441,296.063l15.447-8.817,15.447,8.817-15.447,8.817Z" transform="translate(-453.651 -251.099)"/></g></g><g transform="translate(2.67)"><path class="m" d="M252.173,240.067l68.07-39.181c13.484-7.7,26.2-8.915,35.81-3.436s14.9,16.981,14.9,32.373v4.931c-.483.322-.986.636-1.5.947v-5.878c0-14.839-5.025-25.881-14.146-31.088s-21.308-3.986-34.309,3.434l-68.07,39.183a.751.751,0,0,1-1.025-.271A.738.738,0,0,1,252.173,240.067Z" transform="translate(-251.798 47.417)"/><path class="m" d="M395.92,284.2V132.545c0-30.354,21.635-67.4,48.228-82.577,13.022-7.433,25.307-8.611,34.588-3.314s14.391,16.4,14.391,31.267V88.5l-1.5,1.484V77.921c0-14.315-4.844-24.962-13.64-29.982S457.439,44.1,444.9,51.252c-26.179,14.943-47.477,51.411-47.477,81.293V284.2c0,25.161-14.976,54.941-35.283,72.86v-1.99C381.643,337.346,395.92,308.569,395.92,284.2Z" transform="translate(-183.266 -43.389)"/><path class="b" d="M443.515,80.12h0a60.481,60.481,0,0,1,30.73-14.872c18.994-2.87,26.844,19.089,26.844,19.089s2.2,11.406,2.119,18.158-.567,31.267-.567,31.267L442.427,99.47v-.008a.736.736,0,0,1-.413-.654V81.4C442.515,80.908,443.014,80.615,443.515,80.12Z" transform="translate(-133.655 -30.372)"/><g transform="translate(0.289 0.277)"><path class="n" d="M535.864,79.075,478.792,46.548l.224.811c-8.8-5.617-22.091-6.223-39.872,6.669-35.321,25.607-39.563,61.256-41.364,67.935s-1.06,49-1.06,49-.118,102.076-.235,113.948-3.613,25.192-10.36,39.574-24.077,31.833-24.077,31.833V377.1c2.766,22.464,12.421,27.7,26.784,28.983,11.592,1.032,23.944-7.242,33.813-16.26-.363.375-.6.614-.6.614v20.776c2.767,22.462,12.421,27.7,26.785,28.982s29.9-11.726,40.422-22.736,19.4-27.822,24.331-42.987,3.3-34.764,3.3-34.764.118-111.581.235-133.579.825-18.158,8.123-40.272,26.649-37.6,26.649-37.6l46.43-13.669Z" transform="translate(-183.611 -43.561)"/><path class="o" d="M459.91,334.424c-.783-1.051-10.952-7.794-13.543-19.664-1.441-6.606-1.3-16.645-1.3-16.645s.042-5.583.178-10.659c.113-.1.23-.191.344-.29v-1.99c-.094.085-.19.16-.282.244.039-1.146.083-2.221.133-3.133.3-5.277-3.649-16.528-3.649-16.528S436.2,250.685,419.543,250.1c-14.791-.518-30.36,10-33.672,12.372v-6.806c-.219.147-.457.288-.684.433.018-.912.039-1.845.063-2.76.114-.1.23-.189.344-.288v-1.99c-.092.083-.19.16-.282.244.039-1.146.083-2.221.135-3.133.293-5.277-3.651-16.528-3.651-16.528s-5.593-15.074-22.251-15.656c-14.793-.516-30.36,10-33.672,12.374v-6.806c-.483.322-.986.636-1.5.947V234.42c0,14.438,4.865,25.288,13.7,30.676l.036.04.308.176c.083.048.16.1.243.152.053.03.112.05.165.08l61.086,34.767c-.015-.021-.055-.056-.078-.08Z" transform="translate(-207.011 60.337)"/><g transform="translate(0 241.85)"><path class="n" d="M415.942,231.322s-.459-.232-1.264-.556c-.248-.119-.488-.256-.739-.369l-58-33.187a31.45,31.45,0,0,0-23.545-.872c-12.888,4.664-80.421,44.716-80.421,44.716l60.332,34.362.011-.006a.679.679,0,0,0,.16.043l59.828,34.075s33.847-20.73,57.264-34.1l1.5-.856c9.574-5.442,17.177-9.507,19.563-10.132,14.437-3.782,24.482.827,27.1,2.245Z" transform="translate(-251.976 -194.47)"/><path class="n" d="M391.239,239.529l.7.4S391.682,239.769,391.239,239.529Z" transform="translate(-165.48 -167.316)"/></g><path class="p" d="M480.527,101.4h0a60.483,60.483,0,0,1,30.73-14.872c18.994-2.87,26.844,19.089,26.844,19.089s2.2,11.406,2.119,18.158-.567,31.267-.567,31.267l-60.212-34.291v-.008a.734.734,0,0,1-.413-.654v-17.4C479.525,102.193,480.026,101.9,480.527,101.4Z" transform="translate(-110.956 -17.822)"/><g transform="translate(119.948 68.138)"><path class="p" d="M470.653,415.4c6.638,0,13.989-2.191,21.591-6.532,26.4-15.068,47.878-51.846,47.878-81.981V175.235c0-29.883,21.3-66.35,47.479-81.295,12.541-7.154,24.289-8.334,33.085-3.314s13.64,15.67,13.64,29.985v33.9a.751.751,0,0,0,1.5,0v-33.9c0-14.868-5.11-25.972-14.391-31.269s-21.564-4.119-34.586,3.314c-26.594,15.178-48.229,52.223-48.229,82.578V326.887c0,29.663-21.141,65.863-47.127,80.7-12.444,7.1-24.107,8.273-32.839,3.289s-13.538-15.552-13.538-29.759V363.319c0-15.393-5.29-26.89-14.9-32.373s-22.323-4.263-35.809,3.434l-68.07,39.183a.736.736,0,0,0-.274,1.013.756.756,0,0,0,1.025.271l68.07-39.181c13-7.42,25.185-8.641,34.307-3.434s14.146,16.247,14.146,31.088v17.794c0,14.76,5.074,25.785,14.288,31.044A25.406,25.406,0,0,0,470.653,415.4Z" transform="translate(-325.968 -86.078)"/></g></g><path class="q" d="M422.634,168.826l-10.062-5.744a4.1,4.1,0,0,1-1.728-3.21h0c-.019-1.239.721-1.811,1.655-1.279l10.062,5.744a4.092,4.092,0,0,1,1.726,3.208h0C424.309,168.785,423.568,169.358,422.634,168.826Z" transform="translate(-153.015 25.916)"/><path class="q" d="M437.645,177.461l-14.838-8.47a4.093,4.093,0,0,1-1.726-3.208h0c-.021-1.24.72-1.813,1.654-1.28l14.838,8.47a4.09,4.09,0,0,1,1.726,3.208h0C439.319,177.421,438.578,177.993,437.645,177.461Z" transform="translate(-146.657 29.477)"/><path class="q" d="M425.434,147.13l-19.207-10.964a4.09,4.09,0,0,1-1.727-3.208h0c-.021-1.239.72-1.813,1.654-1.279l19.207,10.962a4.093,4.093,0,0,1,1.726,3.21h0C427.109,147.09,426.368,147.662,425.434,147.13Z" transform="translate(-156.954 9.697)"/><path class="q" d="M412.7,151.491l-6.287-3.588a4.1,4.1,0,0,1-1.727-3.208h0c-.021-1.24.72-1.813,1.654-1.281L412.631,147a4.093,4.093,0,0,1,1.727,3.21h0C414.379,151.451,413.638,152.023,412.7,151.491Z" transform="translate(-156.836 16.769)"/><path class="q" d="M410.644,161.942l-4.035-2.3a4.1,4.1,0,0,1-1.728-3.21h0c-.019-1.239.72-1.811,1.654-1.279l4.035,2.3a4.1,4.1,0,0,1,1.728,3.21h0C412.317,161.9,411.578,162.474,410.644,161.942Z" transform="translate(-156.718 23.841)"/><path class="q" d="M431.154,162.073l-16.79-9.584a4.1,4.1,0,0,1-1.728-3.208h0c-.019-1.239.72-1.813,1.654-1.279l16.79,9.582a4.1,4.1,0,0,1,1.728,3.21h0C432.827,162.033,432.088,162.605,431.154,162.073Z" transform="translate(-151.902 19.534)"/><path class="q" d="M435.587,158.737l-29.264-16.7a4.09,4.09,0,0,1-1.726-3.208h0c-.021-1.24.72-1.813,1.653-1.279l29.262,16.7a4.1,4.1,0,0,1,1.728,3.208h0C437.26,158.7,436.52,159.271,435.587,158.737Z" transform="translate(-156.895 13.233)"/><path class="q" d="M423.3,163.354l-16.79-9.584a4.1,4.1,0,0,1-1.728-3.208h0c-.019-1.24.72-1.813,1.654-1.28l16.79,9.584a4.1,4.1,0,0,1,1.728,3.208h0C424.977,163.314,424.238,163.887,423.3,163.354Z" transform="translate(-156.777 20.305)"/><path class="q" d="M434.913,164.314l-6.1-3.481a4.093,4.093,0,0,1-1.727-3.21h0c-.021-1.239.72-1.811,1.654-1.279l6.1,3.482a4.09,4.09,0,0,1,1.727,3.208h0C436.587,164.275,435.847,164.847,434.913,164.314Z" transform="translate(-142.927 24.561)"/><g transform="translate(238.846 117.578)"><path class="q" d="M425.71,135.724l-10.062-5.744a4.1,4.1,0,0,1-1.728-3.21h0c-.02-1.239.72-1.811,1.654-1.279l10.064,5.744a4.093,4.093,0,0,1,1.726,3.21h0C427.385,135.683,426.644,136.256,425.71,135.724Z" transform="translate(-389.95 -111.61)"/><path class="q" d="M442.326,145.285l-14.838-8.47a4.09,4.09,0,0,1-1.726-3.208h0c-.021-1.24.72-1.813,1.654-1.279l14.838,8.468A4.092,4.092,0,0,1,443.979,144h0C444,145.245,443.259,145.817,442.326,145.285Z" transform="translate(-382.596 -107.491)"/><path class="q" d="M422.634,168.826l-10.062-5.744a4.1,4.1,0,0,1-1.728-3.21h0c-.019-1.239.721-1.811,1.655-1.279l10.062,5.744a4.092,4.092,0,0,1,1.726,3.208h0C424.309,168.785,423.568,169.358,422.634,168.826Z" transform="translate(-391.861 -91.662)"/><path class="q" d="M437.645,177.461l-14.838-8.47a4.093,4.093,0,0,1-1.726-3.208h0c-.021-1.24.72-1.813,1.654-1.28l14.838,8.47a4.09,4.09,0,0,1,1.726,3.208h0C439.319,177.421,438.578,177.993,437.645,177.461Z" transform="translate(-385.503 -88.101)"/><path class="q" d="M407.242,130.9l-6.287-3.588a4.1,4.1,0,0,1-1.726-3.21h0c-.021-1.239.72-1.811,1.654-1.279l6.287,3.588a4.092,4.092,0,0,1,1.726,3.208h0C408.917,130.859,408.176,131.431,407.242,130.9Z" transform="translate(-399.075 -113.219)"/><path class="q" d="M425.434,147.13l-19.207-10.964a4.09,4.09,0,0,1-1.727-3.208h0c-.021-1.239.72-1.813,1.654-1.279l19.207,10.962a4.093,4.093,0,0,1,1.726,3.21h0C427.109,147.09,426.368,147.662,425.434,147.13Z" transform="translate(-395.8 -107.881)"/><path class="q" d="M412.7,151.491l-6.287-3.588a4.1,4.1,0,0,1-1.727-3.208h0c-.021-1.24.72-1.813,1.654-1.281L412.631,147a4.093,4.093,0,0,1,1.727,3.21h0C414.379,151.451,413.638,152.023,412.7,151.491Z" transform="translate(-395.682 -100.809)"/><path class="q" d="M442.97,192.147l-16.79-9.584a4.1,4.1,0,0,1-1.728-3.208h0c-.019-1.24.72-1.813,1.653-1.279l16.79,9.582a4.1,4.1,0,0,1,1.728,3.21h0C444.643,192.107,443.9,192.679,442.97,192.147Z" transform="translate(-383.409 -79.922)"/><path class="q" d="M410.644,161.942l-4.035-2.3a4.1,4.1,0,0,1-1.728-3.21h0c-.019-1.239.72-1.811,1.654-1.279l4.035,2.3a4.1,4.1,0,0,1,1.728,3.21h0C412.317,161.9,411.578,162.474,410.644,161.942Z" transform="translate(-395.564 -93.737)"/><path class="q" d="M411.81,174.234l-5.011-2.861a4.1,4.1,0,0,1-1.728-3.208h0c-.019-1.239.721-1.813,1.654-1.279l5.012,2.861a4.092,4.092,0,0,1,1.726,3.208h0C413.485,174.194,412.744,174.768,411.81,174.234Z" transform="translate(-395.446 -86.665)"/><path class="q" d="M426.977,182.937l-13.21-7.54a4.1,4.1,0,0,1-1.728-3.21h0c-.019-1.239.72-1.811,1.654-1.279l13.212,7.54a4.093,4.093,0,0,1,1.727,3.21h0C428.651,182.9,427.91,183.469,426.977,182.937Z" transform="translate(-391.119 -84.241)"/><path class="q" d="M416.392,182.663l-9.5-5.422a4.1,4.1,0,0,1-1.728-3.208h0c-.019-1.24.721-1.813,1.655-1.279l9.5,5.422a4.1,4.1,0,0,1,1.728,3.208h0C418.067,182.623,417.326,183.2,416.392,182.663Z" transform="translate(-395.387 -83.129)"/><path class="q" d="M431.154,162.073l-16.79-9.584a4.1,4.1,0,0,1-1.728-3.208h0c-.019-1.239.72-1.813,1.654-1.279l16.79,9.582a4.1,4.1,0,0,1,1.728,3.21h0C432.827,162.033,432.088,162.605,431.154,162.073Z" transform="translate(-390.748 -98.045)"/><path class="q" d="M435.587,158.737l-29.264-16.7a4.09,4.09,0,0,1-1.726-3.208h0c-.021-1.24.72-1.813,1.653-1.279l29.262,16.7a4.1,4.1,0,0,1,1.728,3.208h0C437.26,158.7,436.52,159.271,435.587,158.737Z" transform="translate(-395.741 -104.345)"/><path class="q" d="M423.3,163.354l-16.79-9.584a4.1,4.1,0,0,1-1.728-3.208h0c-.019-1.24.72-1.813,1.654-1.28l16.79,9.584a4.1,4.1,0,0,1,1.728,3.208h0C424.977,163.314,424.238,163.887,423.3,163.354Z" transform="translate(-395.623 -97.273)"/><path class="q" d="M434.913,164.314l-6.1-3.481a4.093,4.093,0,0,1-1.727-3.21h0c-.021-1.239.72-1.811,1.654-1.279l6.1,3.482a4.09,4.09,0,0,1,1.727,3.208h0C436.587,164.275,435.847,164.847,434.913,164.314Z" transform="translate(-381.773 -93.018)"/><path class="q" d="M426.887,177.027,406.7,165.507a4.1,4.1,0,0,1-1.728-3.21h0c-.02-1.239.72-1.813,1.653-1.279l20.183,11.52a4.1,4.1,0,0,1,1.728,3.208h0C428.56,176.987,427.821,177.559,426.887,177.027Z" transform="translate(-395.505 -90.201)"/><path class="q" d="M415.7,129.911l-14.838-8.468a4.093,4.093,0,0,1-1.727-3.21h0c-.021-1.239.72-1.811,1.654-1.279l14.838,8.47a4.09,4.09,0,0,1,1.727,3.208h0C417.373,129.873,416.632,130.445,415.7,129.911Z" transform="translate(-399.134 -116.755)"/><path class="q" d="M419,189.93l-17.185-9.81a4.09,4.09,0,0,1-1.726-3.208h0c-.021-1.239.72-1.813,1.654-1.279l17.185,9.808a4.093,4.093,0,0,1,1.726,3.21h0C420.671,189.89,419.931,190.462,419,189.93Z" transform="translate(-398.543 -81.394)"/></g><path class="q" d="M421.175,224.51l-10.062-5.744a4.1,4.1,0,0,1-1.728-3.208h0c-.02-1.24.721-1.813,1.654-1.28l10.064,5.744a4.093,4.093,0,0,1,1.727,3.21h0C422.85,224.469,422.109,225.042,421.175,224.51Z" transform="translate(-153.921 59.473)"/><path class="q" d="M436.186,233.144l-14.838-8.47a4.1,4.1,0,0,1-1.728-3.208h0c-.019-1.239.721-1.813,1.655-1.279l14.838,8.468a4.1,4.1,0,0,1,1.726,3.21h0C437.861,233.1,437.12,233.678,436.186,233.144Z" transform="translate(-147.564 63.034)"/><path class="q" d="M423.975,202.814l-19.207-10.962a4.093,4.093,0,0,1-1.726-3.21h0c-.021-1.239.72-1.811,1.654-1.279L423.9,198.326a4.09,4.09,0,0,1,1.726,3.208h0C425.65,202.774,424.909,203.347,423.975,202.814Z" transform="translate(-157.86 43.254)"/><path class="q" d="M411.245,207.175l-6.287-3.588a4.09,4.09,0,0,1-1.726-3.208h0c-.021-1.239.72-1.813,1.654-1.279l6.287,3.588A4.09,4.09,0,0,1,412.9,205.9h0C412.92,207.135,412.179,207.708,411.245,207.175Z" transform="translate(-157.742 50.326)"/><path class="q" d="M409.185,217.625l-4.036-2.3a4.1,4.1,0,0,1-1.726-3.208h0c-.021-1.24.72-1.813,1.653-1.279l4.035,2.3a4.1,4.1,0,0,1,1.728,3.208h0C410.858,217.585,410.117,218.159,409.185,217.625Z" transform="translate(-157.624 57.398)"/><path class="q" d="M429.695,217.757,412.9,208.175a4.093,4.093,0,0,1-1.727-3.21h0c-.021-1.239.72-1.811,1.653-1.279l16.79,9.584a4.1,4.1,0,0,1,1.728,3.208h0C431.368,217.718,430.627,218.29,429.695,217.757Z" transform="translate(-152.808 53.09)"/><path class="q" d="M434.126,214.422l-29.262-16.7a4.093,4.093,0,0,1-1.727-3.21h0c-.021-1.239.72-1.811,1.654-1.279l29.262,16.7a4.1,4.1,0,0,1,1.728,3.208h0C435.8,214.382,435.06,214.954,434.126,214.422Z" transform="translate(-157.801 46.79)"/><path class="q" d="M421.845,219.038l-16.791-9.584a4.09,4.09,0,0,1-1.726-3.208h0c-.021-1.24.72-1.813,1.654-1.279l16.79,9.584a4.1,4.1,0,0,1,1.728,3.208h0C423.518,219,422.777,219.57,421.845,219.038Z" transform="translate(-157.683 53.862)"/><path class="q" d="M433.454,220l-6.1-3.482a4.1,4.1,0,0,1-1.728-3.208h0c-.019-1.239.721-1.813,1.655-1.279l6.1,3.481a4.093,4.093,0,0,1,1.726,3.21h0C435.129,219.959,434.388,220.531,433.454,220Z" transform="translate(-143.834 58.118)"/></g><g transform="translate(34.242 148.641)"><g transform="translate(4.332)"><path class="q" d="M305.384,284.142s-5.753-2.869-9.287,1.4-8.584,14.353-8.739,21.166,5.453,6.353,8.788,4.741,13.076-15.582,13.666-18.32-.7-6.438-1.632-7.162S305.384,284.142,305.384,284.142Z" transform="translate(-265.619 -47.514)"/><path class="m" d="M303.423,283.445l.266,5.893A3.33,3.33,0,0,1,302,292.4a6.689,6.689,0,0,1-4.437.683c-4.335-.689-4.721-1.912-5.03-7.8S303.423,283.445,303.423,283.445Z" transform="translate(-262.403 -48.186)"/><g transform="translate(0 104.539)"><path class="q" d="M292.393,277.074s-5.753-2.869-9.286,1.4-8.584,14.353-8.741,21.166,5.453,6.351,8.788,4.739S296.23,288.8,296.82,286.063s-.7-6.439-1.632-7.162S292.393,277.074,292.393,277.074Z" transform="translate(-273.688 -156.314)"/><path class="m" d="M290.432,276.375l.267,5.893a3.334,3.334,0,0,1-1.684,3.066,6.7,6.7,0,0,1-4.439.683c-4.333-.689-4.721-1.914-5.03-7.8S290.432,276.375,290.432,276.375Z" transform="translate(-270.472 -156.986)"/><path class="h" d="M345.242,212.577c-1.7-27.389-30,4.029-30,4.029l-19.369,18.77-17.443,18.943a16.867,16.867,0,0,0-4.332,13.654l7.055,53.114a5.262,5.262,0,0,0,5.295,4.537,18.284,18.284,0,0,0,2.615-.226,6.5,6.5,0,0,0,5.829-6.886l-1.29-49.678L330.227,247S346.944,239.966,345.242,212.577Z" transform="translate(-273.946 -201.368)"/></g><path class="h" d="M358.231,219.088c-1.7-27.389-30,4.031-30,4.031l-19.37,18.768L291.416,260.83a16.868,16.868,0,0,0-4.333,13.654L294.14,327.6a5.262,5.262,0,0,0,5.294,4.537,18.081,18.081,0,0,0,2.613-.228,6.5,6.5,0,0,0,5.831-6.885l-1.29-49.678,36.63-21.831S359.934,246.478,358.231,219.088Z" transform="translate(-265.878 -92.904)"/><path class="q" d="M336.448,161.159c21.457,8.8,21.026,21.333,21.026,21.333s-4.2,45.968-2.767,76.668c.6,12.834-68.973,13.813-58.6-20.425,12.234-40.37,7.648-73.052,13.376-77.981S330.9,158.885,336.448,161.159Z" transform="translate(-260.837 -122.896)"/><path class="r" d="M333.132,171.083c-1.122,4.308-6.83,6.577-12.748,5.071s-9.808-6.221-8.684-10.528,6.83-6.577,12.748-5.069S334.253,166.777,333.132,171.083Z" transform="translate(-250.618 -121.702)"/><path class="s" d="M324.4,178.008a15.714,15.714,0,0,1-3.878-.494A14.3,14.3,0,0,1,313,172.96a8.044,8.044,0,0,1-1.9-7.207c1.261-4.843,7.54-7.446,14-5.8a14.3,14.3,0,0,1,7.522,4.553,8.045,8.045,0,0,1,1.9,7.207h0C333.514,175.574,329.324,178.008,324.4,178.008Zm-3.231-16.525c-3.985,0-7.316,1.832-8.083,4.776a6.093,6.093,0,0,0,1.5,5.418,12.241,12.241,0,0,0,6.444,3.874c5.356,1.364,10.519-.583,11.5-4.341h0a6.094,6.094,0,0,0-1.5-5.418,12.263,12.263,0,0,0-6.444-3.874A13.917,13.917,0,0,0,321.168,161.484Z" transform="translate(-251.012 -122.082)"/><path class="r" d="M315.353,161.005s.185.851-.186,7.572c-.117,2.114,7.368,4.088,9.3,2.175s1.161-3.9,1.624-11.093S315.353,161.005,315.353,161.005Z" transform="translate(-248.346 -123.699)"/><path class="t" d="M326.094,158.576s-1.843,6.669-10.928,9.226l.138-6.061Z" transform="translate(-248.345 -122.615)"/><path class="r" d="M16.375.082a16.621,16.621,0,0,1,16.457,16.55A16.226,16.226,0,0,1,16.539,33.018,16.621,16.621,0,0,1,.082,16.468,16.226,16.226,0,0,1,16.375.082Z" transform="translate(44.938 29.022) rotate(-59.844)"/><path class="t" d="M325.761,152.412s-9.093,3.851-15.389,3.894-4.91-5.168-4.91-5.168l18.691-2.67Z" transform="translate(-254.453 -128.707)"/><path class="h" d="M311.245,160.857s7.921-3.324,14.87-1.938a7.3,7.3,0,0,1,4.2,2.466,2.475,2.475,0,0,0,1.271.909c1.232.276,3.25-4.777,5.645-4.893s3.993,1.561,2.03,4.668-1.3,6.588-.4,7.087,10.489-6.758,2.035-23.315-29.929-7.64-33.27-4.284c0,0-3.519,3.031-6.381.333C301.246,141.892,298.04,165.646,311.245,160.857Z" transform="translate(-257.203 -136.137)"/><path class="r" d="M336.662,196.939v12.422a5.034,5.034,0,0,1-1.67,3.739l-25.811,23.264,2.934,4.433L346.2,216.358a6.837,6.837,0,0,0,2.822-4.829l2.3-21.661Z" transform="translate(-252.062 -103.758)"/><path class="q" d="M337.075,169.449s7.83,11.641,10.746,42.285c0,0-13.376,4.277-20.967,1.849S337.075,169.449,337.075,169.449Z" transform="translate(-242.255 -116.063)"/><path class="c" d="M326.494,178.634s-3.067,16.219-3.241,23.842a4.869,4.869,0,0,0,3.241,4.7h0Z" transform="translate(-243.323 -110.528)"/></g><g transform="translate(4.126 123.331)"><path class="q" d="M350.5,237.313l-5.7-.745L307.97,215.549a5.17,5.17,0,0,0-4.605.189L277.27,230.626l-3.45-.45v3.394h0a1.326,1.326,0,0,0,.793,1.2l41.734,23.82a5.17,5.17,0,0,0,4.605-.188l28.418-16.215a1.841,1.841,0,0,0,1.127-1.53h0Z" transform="translate(-273.819 -211.887)"/><path class="c" d="M322.831,221.233l-2.616-1.494H291.449l-14.18,8.088-3.45-.45v3.394h0a1.326,1.326,0,0,0,.793,1.2l41.734,23.82a4.349,4.349,0,0,0,2.376.441Z" transform="translate(-273.819 -209.088)"/><path class="q" d="M275.35,224.7l-1.53-.2V227.9h0a1.326,1.326,0,0,0,.793,1.2l.734.42Z" transform="translate(-273.819 -206.216)"/><path class="s" d="M300.314,244.615a5.4,5.4,0,0,0,3.913-.24V238.6h-3.913Z" transform="translate(-257.364 -197.722)"/><path class="s" d="M316.35,256.4l-41.734-23.82c-1.18-.673-1.033-1.851.331-2.628l28.418-16.214a5.166,5.166,0,0,1,4.605-.189l41.734,23.82c1.18.673,1.033,1.851-.331,2.628l-28.418,16.215A5.171,5.171,0,0,1,316.35,256.4Z" transform="translate(-273.819 -213.093)"/><path class="m" d="M313.168,249.517l-34.7-19.807c-.981-.561-.858-1.538.276-2.186l15.229-8.465a4.3,4.3,0,0,1,3.829-.157l34.7,19.805c.981.561.859,1.54-.276,2.186L317,249.36A4.309,4.309,0,0,1,313.168,249.517Z" transform="translate(-271.344 -209.82)"/></g><path class="r" d="M293.3,213.544l-.431,2.848a20.8,20.8,0,0,0,.188,7.3l.512,2.508a3.551,3.551,0,0,0,2.86,2.771h0a1.965,1.965,0,0,0,2.308-1.7l.689-6.085s1.576,2.04,2.336,2.04-.851-6.095-2.571-9.544S293.3,213.544,293.3,213.544Z" transform="translate(-258.011 -90.352)"/><path class="r" d="M308.225,188.005l-4.477,8.763a17.012,17.012,0,0,0-1.832,6.649l-1.945,29.971-5.891-.139L291.4,199.594a12.2,12.2,0,0,1,.152-3.111l3.056-17.068Z" transform="translate(-258.795 -110.057)"/><g transform="translate(0 105.485)"><path class="b" d="M316.238,265.4l-3.5-4.516-36.8-21.062a5.044,5.044,0,0,1-2.132-4.042L273.839,206l-2.116-2.731,1.989-1.139,0,0a1.36,1.36,0,0,1,1.443.082l41.7,23.871a5.047,5.047,0,0,1,2.132,4.04l-.036,32.437a1.83,1.83,0,0,1-.78,1.729h0Z" transform="translate(-270.995 -201.958)"/><path class="c" d="M290.79,248.319l-2.615-1.5-14.352-24.644L273.839,206l-2.116-2.731,1.989-1.139,0,0a1.36,1.36,0,0,1,1.443.082l41.7,23.871a4.288,4.288,0,0,1,1.571,1.817Z" transform="translate(-270.995 -201.958)"/><path class="q" d="M272.662,204.476l-.939-1.212,1.989-1.139,0,0a1.36,1.36,0,0,1,1.443.082l.734.421Z" transform="translate(-270.995 -201.958)"/><path class="u" d="M301.442,217.175a5.253,5.253,0,0,1,1.743,3.473l-4.075,2.325-1.952-3.353Z" transform="translate(-255.198 -192.788)"/><path class="q" d="M315.154,226.79l-41.7-23.87c-1.18-.675-2.138.038-2.14,1.595l-.036,32.437a5.044,5.044,0,0,0,2.133,4.04l41.7,23.871c1.18.675,2.138-.04,2.14-1.6l.036-32.435A5.053,5.053,0,0,0,315.154,226.79Z" transform="translate(-271.274 -201.531)"/></g><path class="r" d="M316.26,223.313l-.669,1.369A9.19,9.19,0,0,1,312.1,228.5l-4.142,2.524a4.166,4.166,0,0,1-4.229.1c-.047-.027-.094-.055-.141-.083a2.447,2.447,0,0,1-.352-3.785l4.328-4.4s-2.432,1.841-3.114,1.1c-.5-.543,2.359-3.2,4.554-3.284a8.7,8.7,0,0,0,4.317-1.79Z" transform="translate(-251.874 -86.275)"/><path class="q" d="M312.753,159.72s-15.871,17.07-22.272,32.729c0,0,5.427,9.665,18.711,13.459S312.753,159.72,312.753,159.72Z" transform="translate(-259.344 -121.926)"/><path class="c" d="M301.517,197.144l2.571-24.563-6.06,23.014A35.116,35.116,0,0,0,301.517,197.144Z" transform="translate(-254.657 -114.176)"/><path class="s" d="M313.186,158.006l-4.265-1.159s2.036,3.167,5.008,3.975,3.435-1.681,3.435-1.681Z" transform="translate(-247.892 -123.657)"/></g><path class="v" d="M547.035,167.026l-7.152-14.384,14.548-7.071,7.152,14.384ZM544.224,154.1l4.291,8.63,8.726-4.241-4.289-8.63Z" transform="translate(-70.199 18.189)"/><g transform="translate(93.981 411.421)"><path class="m" d="M381.616,332.5c-15.887-9.068-41.644-9.068-57.531,0s-15.885,23.77,0,32.838,41.643,9.068,57.53,0S397.5,341.566,381.616,332.5Zm-15.543,23.964c-7.3,4.168-19.142,4.168-26.445,0s-7.3-10.925,0-15.094,19.142-4.168,26.445,0S373.376,352.3,366.073,356.462Z" transform="translate(-305.611 -284.684)"/><g transform="translate(5.527)"><path class="w" d="M318.48,334.713l14.51.224a15.378,15.378,0,0,1,4.583-3.809c7.981-4.555,20.528-4.907,29.222-1.063l8.623-8.018,13.277.205c-.655-.425-1.329-.843-2.041-1.248-18.451-10.532-48.367-10.532-66.817,0a35.017,35.017,0,0,0-8.3,6.394Z" transform="translate(-311.534 -292.272)"/><path class="x" d="M364.219,305.891v20.833l-13.277-.2V305.686Z" transform="translate(-287.058 -296.743)"/><path class="w" d="M345.623,313.7v20.832l8.623-8.017V305.686Z" transform="translate(-290.361 -296.743)"/><path class="w" d="M324.792,318v20.833l19.09-15.379L358.6,333.965V313.133l-13.549-6.5s-18.654,5.644-19.623,5.885S324.792,318,324.792,318Z" transform="translate(-303.335 -296.172)"/><path class="w" d="M315.819,313.589v20.833l14.511.224V313.813Z" transform="translate(-308.873 -291.98)"/><path class="x" d="M311.534,309.024v20.832l6.946,7.316V316.34Z" transform="translate(-311.534 -294.731)"/><path class="y" d="M318.48,321.714l14.51.224a15.378,15.378,0,0,1,4.583-3.81c7.981-4.555,20.528-4.907,29.222-1.062l8.623-8.018,13.277.205c-.655-.425-1.329-.843-2.041-1.248-18.451-10.532-48.367-10.532-66.817,0a35.06,35.06,0,0,0-8.3,6.394Z" transform="translate(-311.534 -300.106)"/></g><g transform="translate(55.653 12.462)"><path class="q" d="M348.319,312.288v19.15l12.562-2.974s-.738-11.206-1.005-11.505S348.319,312.288,348.319,312.288Z" transform="translate(-338.813 -305.227)"/><path class="b" d="M342.455,324.237v20.832l1.357,1.43,8.856-5.047s-1.373-15.9-1.535-16.223S342.455,324.237,342.455,324.237Z" transform="translate(-342.455 -298.026)"/><path class="c" d="M359.554,320.881l-7.593,7.061c6.326,4.947,5.578,11.924-2.248,16.39a27.165,27.165,0,0,1-7.258,2.76l7.849,8.268-6.954,6.465c8.83-1.008,17.255-3.462,24.1-7.369,15.862-9.053,18.074-22.94,6.664-33.351Z" transform="translate(-342.455 -300.048)"/><path class="c" d="M343.007,343.732v20.833l17.22-6.574,20.711-19.534-.077-22.121-21.912,17.17Z" transform="translate(-342.112 -302.788)"/><path class="m" d="M359.554,307.882l-7.593,7.061c6.326,4.947,5.578,11.924-2.248,16.39a27.167,27.167,0,0,1-7.258,2.76l7.849,8.266-6.954,6.467c8.83-1.008,17.255-3.462,24.1-7.369,15.862-9.053,18.074-22.94,6.664-33.351Z" transform="translate(-342.455 -307.882)"/></g><g transform="translate(0 18.349)"><path class="c" d="M364.616,353.037l-6.917-7.286c-6.423.385-13.084-.824-18.006-3.633-5.085-2.9-7.178-6.864-6.29-10.64l-16.474-.253-6.335-6.672c-5.541,9.4-1.76,20.2,11.361,27.689,9.642,5.5,22.415,8.124,35.045,7.875Z" transform="translate(-308.124 -303.721)"/><path class="c" d="M357,343.818v20.832l-48.872-26.774V317.033l7.135,2.852Z" transform="translate(-308.123 -308.254)"/><path class="b" d="M345.89,329.328v20.832l-7.616,7.081V336.409Z" transform="translate(-289.398 -300.844)"/><path class="q" d="M364.616,340.038l-6.917-7.286c-6.423.385-13.084-.824-18.006-3.633-5.085-2.9-7.178-6.864-6.29-10.64l-16.474-.253-6.335-6.672c-5.541,9.4-1.76,20.2,11.361,27.689,9.642,5.5,22.415,8.124,35.045,7.875Z" transform="translate(-308.124 -311.555)"/></g></g><path class="q" d="M279.414,127.523a10.418,10.418,0,1,1,10.537-10.417A10.49,10.49,0,0,1,279.414,127.523Zm0-17.629a7.212,7.212,0,1,0,7.295,7.212A7.26,7.26,0,0,0,279.414,109.894Z" transform="translate(-238.52 -5.242)"/><path class="m" d="M265.446,325.563A7.648,7.648,0,1,1,257.8,318,7.6,7.6,0,0,1,265.446,325.563Z" transform="translate(-250.151 122.1)"/><path class="m" d="M507.778,56.13a9.115,9.115,0,1,1-9.114-9.012A9.062,9.062,0,0,1,507.778,56.13Z" transform="translate(-101.461 -41.141)"/><g transform="translate(96.123 34.857)"><path class="q" d="M359.093,89.8,316.57,65.532a2.2,2.2,0,0,0-2.2-.175l0-.027-4.126,2.357s1.827.657,2.9,1.047V99.349a8.072,8.072,0,0,0,3.422,6.462l40.644,23.2V132.6l4.168-2.372-.023-.008a2.987,2.987,0,0,0,1.156-2.7V96.265A8.073,8.073,0,0,0,359.093,89.8Z" transform="translate(-308.947 -65.139)"/><path class="m" d="M355.391,131.58l-42.523-24.27a8.076,8.076,0,0,1-3.422-6.463V69.587c0-2.49,1.532-3.635,3.422-2.556L355.391,91.3a8.075,8.075,0,0,1,3.422,6.463v31.259C358.813,131.514,357.281,132.658,355.391,131.58Z" transform="translate(-309.446 -64.243)"/><g transform="translate(11.983 26.994)"><path class="s" d="M322.577,87.282c0,1.809-1.284,2.542-2.869,1.638a6.258,6.258,0,0,1-2.869-4.912c0-1.809,1.286-2.543,2.869-1.638A6.253,6.253,0,0,1,322.577,87.282Z" transform="translate(-316.838 -81.982)"/><path class="s" d="M327.939,90.378c0,1.809-1.286,2.542-2.869,1.638A6.256,6.256,0,0,1,322.2,87.1c0-1.809,1.284-2.542,2.869-1.638A6.26,6.26,0,0,1,327.939,90.378Z" transform="translate(-313.508 -80.117)"/><path class="s" d="M333.3,93.473c0,1.809-1.286,2.543-2.869,1.638a6.253,6.253,0,0,1-2.869-4.912c0-1.809,1.284-2.542,2.869-1.638A6.257,6.257,0,0,1,333.3,93.473Z" transform="translate(-310.177 -78.251)"/></g></g></svg>