<svg xmlns="http://www.w3.org/2000/svg" width="295.954" height="211.507" viewBox="0 0 295.954 211.507">
  <g id="Laboratory_" data-name="Laboratory " transform="translate(-1308.492 -737)">
    <g id="Group_2697" data-name="Group 2697" transform="translate(1313.471 730)">
      <ellipse id="Ellipse_224" data-name="Ellipse 224" cx="83.98" cy="83.497" rx="83.98" ry="83.497" transform="matrix(0.966, 0.259, -0.259, 0.966, 128.739, 7)" fill="#eee" opacity="0.29"/>
      <ellipse id="Ellipse_225" data-name="Ellipse 225" cx="56.952" cy="56.952" rx="56.952" ry="56.952" transform="matrix(0.966, 0.259, -0.259, 0.966, 24.502, 79.003)" fill="#eee" opacity="0.29"/>
    </g>
    <g id="Group_2696" data-name="Group 2696" transform="translate(1317.441 766.176)">
      <path id="Path_2351" data-name="Path 2351" d="M-416.64,359.757l.735.782c1.808.593,3.667.084,5.5.254,1.093,2.429-.414,2.479-2.178,2.479q-42.648.009-85.3.053c-10.47,0-20.94-.064-31.411-.095-1.187,0-2.731.219-2.665-1.481.059-1.513,1.551-1.219,2.632-1.22,4.086,0,8.173-.043,12.258.013,1.488.02,2.07-.418,2.1-2.037a11.705,11.705,0,0,1,9.286-11.277c1.3-.285,1.622-.744,1.627-2,.015-3.572,1.209-4.67,4.769-4.67,3.746,0,7.493-.077,11.236.016a2.025,2.025,0,0,0,2.425-1.911q1.47-7.9,3.06-15.78c.343-1.706-.876-1.8-1.938-2.005-6.348-1.21-12.694-2.427-19.056-3.555-3.308-.587-3.5-.759-2.909-4.106.95-5.372.953-5.386,6.482-4.359,12.292,2.282,24.578,4.6,36.875,6.85,1.521.279,2.091.963,1.673,2.449a7.988,7.988,0,0,0-.238.992c-1.053,7.2-.7,5.655-7.205,4.587-2.2-.361-2.953-.232-3.38,2.048-.3,1.615.141,2.093,1.5,2.087,7.168-.032,13.3-2.429,17.972-8.046.107-.129.166-.3.281-.42,1.817-1.848,2.272-2.953-.454-4.985-5.953-4.438-4.855-12.966,1.807-16.458,1.783-.935,1.823-1.583.851-3.21a24.5,24.5,0,0,0-9.432-9.072c-1.605-.886-2.64-1.161-2.856,1.164-.078.835-.534,1.635-.613,2.47-.246,2.628-.823,4.644-4.217,3.31-.94-.369-1.645.159-1.691,1.28-.1,2.382-.8,3.829-3.63,2.721-.8-.313-1.809-.22-1.923,1.252-.156,2.028-1.123,3.917-.974,6.051.093,1.331-.637,2.3-2.26,1.918q-3.228-.759-6.459-1.51c-1.424-.334-2-1.094-1.506-2.606.419-1.289.59-2.657.978-3.958.661-2.218,1.089-4.133-2.282-4.322-1.33-.075-1.379-1.25-.907-2.328.879-2.012.485-3.212-1.944-3.391-1.825-.135-2.015-1.153-1.644-2.863,3.177-14.625,6.308-29.26,9.28-43.927.475-2.346,1.314-3.148,3.551-2.472a1.359,1.359,0,0,0,.5.089c1.334-.132,3.095,1.838,3.843.106.852-1.971,2.29-4.372.009-6.612a5.121,5.121,0,0,1-1-2.312c-1.161-4.4-.165-5.427,4.116-4.478,4.818,1.068,9.655,2.048,14.484,3.065,3.013.634,3.355,1.412,1.908,4.181a5.91,5.91,0,0,1-2.722,2.955c-2.759,1.107-2.426,3.656-2.977,5.767-.309,1.18.876,1.26,1.646,1.5,5.408,1.69,5.506,1.71,4.059,7.09-.453,1.686-.1,2.286,1.4,3.089A13.85,13.85,0,0,1-447.207,270c-.545,1.358-.066,1.768.824,2.438,8.794,6.613,14.594,15.2,16.348,26.135,2.061,12.855-1.1,24.337-9.817,34.178a38.415,38.415,0,0,1-8.767,7.329c1.592.862,2.854.387,4.034.409,4.169.078,8.341.053,12.512.067,3.06.011,4.472,1.433,4.419,4.547-.017,1-.081,1.807,1.243,2.065,5.129,1,8.137,4.255,9.509,9.176A9.352,9.352,0,0,0-416.64,359.757Zm-48.9-104.216.024-.014a.837.837,0,0,0-.987.592l.013-.007a2.934,2.934,0,0,0-1.676,1.391l-.473.588-.426.5c-3.684,4.409-2.941,8.992-.261,13.444,2.151,3.572,5.817,4.5,9.669,4.293,8.288-.435,13.362-9.506,9.214-16.251a9.309,9.309,0,0,0-5.855-4.96c-.287-.744-.9-.681-1.511-.605l.024.01c-2.352-1.158-4.57-.681-6.726.555a.549.549,0,0,0-.4.13A.477.477,0,0,0-465.543,255.541Zm-18.906,28.117c-.784-.779-1.907-.407-2.83-.844-.945-.448-1.293.447-1.532,1.177-.279.85.241,1.28.959,1.444a16.13,16.13,0,0,0,1.976.216l3.379.695c1.549.78,3.287.728,4.927,1.115,3.221.76,6.453,1.466,9.675,2.219.915.214,1.7.222,2.112-.809.314-.783.1-1.409-.729-1.57-5.158-1-10.22-2.476-15.46-3.053C-482.7,283.663-483.617,283.828-484.449,283.659Zm46.563,3.048.052.024c-1.319-4.511-4.791-7.306-8.134-10.205a12.363,12.363,0,0,1-1.12-1c-1.428-1.615-2.536-1.51-4.008.181-1.906,2.189-4.661,3-7.483,3.435-1.029.157-2.336-.332-2.734,1.2-.446,1.714,1.1,1.963,2.035,2.446a25.757,25.757,0,0,1,12.4,12.877,2.111,2.111,0,0,0,1.628,1.418c5.524,1.081,7.742,4.94,8.377,10.1-.843,5.066-3.582,8.631-7.721,9.193a4.96,4.96,0,0,0-4.567,3.595c-5.774,7.158-13.01,11.206-22.454,10.538-.744-.053-1.509.032-1.551.878-.085,1.7-1.283,3.162-1,4.923a4.773,4.773,0,0,1-.162,1.749c-1.11,2.117-.128,2.466,1.773,2.431a91.739,91.739,0,0,1,10.69.079c5.5.545,10.095-1.282,14.285-4.54,5.357-4.166,9.913-8.983,12.211-15.56l0,.008c.547-.4.513-1,.542-1.583,3.2-6.255,2.994-12.929,2.26-19.618a19.774,19.774,0,0,0-3.272-9.025C-436.33,288.956-436.65,287.565-437.886,286.707Zm-46.6-21.57a1.958,1.958,0,0,0-.4,1.681l-.112.868c-1.4,3.36-1.505,7.016-2.4,10.492-.759,2.962-.748,2.965,2.476,3.478.968-.049,1.547,1.082,2.576.846,3.9.772,7.782,1.623,11.7,2.3,6.609,1.135,4.724,2.269,6.617-4.161a4.521,4.521,0,0,0,.12-1.008,1.26,1.26,0,0,0-.877-1.393c-5.327-1.729-7.81-5.883-9.322-10.875-.891-10,5.972-15.733,12.92-15.908,3.208-.081,3.433-1.562,4.045-3.7.4-1.406-.094-1.847-1.315-2.086-4.9-.956-9.8-1.939-14.7-2.912a3.914,3.914,0,0,0-3.984-.045c-.052-1.109-.776-1.43-1.725-1.411s-.938.823-1.068,1.464C-481.438,250.22-483.336,257.6-484.488,265.136Zm4.2,60.465c-.808,4.172-1.638,8.34-2.406,12.52-.157.857-1.073,2.356.7,2.3,1.446-.045,3.733,1.331,4.315-1.193a91.4,91.4,0,0,0,2.416-13c.016-1.128,1.352-2.488.242-3.264a7.229,7.229,0,0,0-4.056-.929c-1.043.016-.666,1.356-.914,2.1A11.932,11.932,0,0,0-480.29,325.6Zm53.777,24.423c-3.076-.771-6.184-.37-9.284-.249l-2.656.007-.941,0q-22.276-.321-44.552,0c-6.18-.048-12.36-.107-18.54-.13-.992,0-2.044-.269-2.956.4-2.767.553-4.362,2.613-6.014,4.626-.51.621-.64,1.14-.034,1.731.682.516,1.477.312,2.222.312q43.648.02,87.3.009c.648,0,1.378.259,1.89-.414a2.553,2.553,0,0,0-.44-1.85A9.745,9.745,0,0,0-426.513,350.024Zm-39.517-2.986c11.143,0,22.285-.018,33.428.023,1.354.005,2.432-.071,2.393-1.77-.035-1.546-.964-1.96-2.376-1.958q-33.172.039-66.345.018c-1.45,0-2.5.175-2.467,2.021.029,1.87,1.224,1.668,2.45,1.666Q-482.489,347.02-466.03,347.038Zm-1.6-25.755a5.116,5.116,0,0,1,.76.062c1.279.293,2.131,0,2.417-1.453.345-1.745-.976-1.692-1.99-1.951-.821-.21-1.667-.323-2.5-.478-10.684-1.985-21.373-3.938-32.044-5.993-1.335-.257-2.38-.9-2.736,1.154-.339,1.964.846,2.024,2.185,2.258,5.1.892,10.194,1.843,15.289,2.779a71.278,71.278,0,0,1,8.237,1.6A65.613,65.613,0,0,0-467.625,321.283Zm1.58,36.867v.063c-14.546,0-29.091-.018-43.636.039-1.023,0-2.945-.806-2.929.748.013,1.362,1.979.792,3.075.794q43.764.054,87.527.035c.34,0,.681.012,1.021,0,.677-.027,1.516.043,1.411-.974-.1-.967-.855-.727-1.561-.725Q-443.59,358.171-466.045,358.15Zm19.122-44.213c3.656.034,7.291-3.547,7.271-7.163-.019-3.414-3.792-7.194-7.224-7.238-3.5-.045-7.234,3.646-7.289,7.194C-454.22,310.332-450.632,313.9-446.923,313.937Zm-16.046-79.672a6.623,6.623,0,0,0,4.287-1.586c.452-.386,1.071-.711.884-1.409-.191-.714-.908-.622-1.481-.736-3.917-.778-7.831-1.575-11.749-2.351-.623-.124-1.34-.83-1.866-.105-.538.741.119,1.4.519,2.058C-470.112,233.858-466.036,233.244-462.969,234.265Zm.261,3.676a.933.933,0,0,0-.812-1.095c-2.057-.437-4.119-.851-6.182-1.257-.67-.131-1.054.14-1.334.813-1.19,2.864-.834,3.624,2.2,4.351.816.2,1.646.339,2.475.47C-464.069,241.586-462.636,240.291-462.708,237.941Zm-20.663,51.323c-.7-.188-1.4-.165-1.587.7-.185.851.408,1.116,1.111,1.381a44.391,44.391,0,0,0,10.677,2.291c.788.09,1.362.011,1.538-.833s-.3-1.267-1.064-1.42Q-478.03,290.317-483.371,289.264Zm3.476,5.848c-1.829-.439-2.18.73-2.288,1.779-.237,2.313,1.961,1.957,3.134,2.341,2.119.693,2.024-1.509,2.07-2.5C-476.871,294.451-479.353,296.152-479.895,295.113Zm-1.378,5.159c-.76-.2-1.65-.156-1.526.505.366,1.947,2.521,1.356,3.707,2.24a.778.778,0,0,0,1.176-.8C-478.15,299.963-480.281,300.958-481.272,300.272Z" transform="translate(546.858 -224.943)" fill="#1751a3"/>
      <path id="Path_2352" data-name="Path 2352" d="M-264.658,391.933c.065-.738-.443-1-1-1.247-12.355-5.411-22.016-21.341-19-37.764a34.726,34.726,0,0,1,11.791-20.867c8.059-6.848,11.99-15.429,11.752-26a5.84,5.84,0,0,0-2.546-5.209,9.9,9.9,0,0,1-4.15-7.577,3.317,3.317,0,0,1,3.542-3.985q14.686-.073,29.373,0c2.3.012,3.505,1.445,3.458,3.791a9.657,9.657,0,0,1-4.158,7.822,6.158,6.158,0,0,0-2.623,5.44,32.269,32.269,0,0,0,11.736,25.561A33.194,33.194,0,0,1-217,344.968c.192.493.321,1.091.894,1.085.844-.009.658-.814.812-1.35,2.117-7.374,2.407-14.924,2.225-22.526-.029-1.2-.163-2.188-1.57-2.52-2.125-.5-2.677-1.931-2.6-4.019.186-4.988.107-4.967,5.035-4.983,8.086-.026,16.173-.055,24.258-.155,1.871-.023,2.693.661,2.529,2.555a16.83,16.83,0,0,0-.011,3.061,2.923,2.923,0,0,1-2.278,3.464c-1.006.3-1.862.628-1.9,1.993-.285,9.515.291,18.92,3.909,27.86,2.784,6.878,7.066,12.966,10.62,19.44a102.643,102.643,0,0,1,5.005,9.158,10.7,10.7,0,0,1-2.4,12.442c-.351.358-.885.637-.533,1.243.248.427.725.335,1.142.329,2.128-.03,4.256-.049,6.383-.09,1.118-.022,2.493-.2,2.518,1.357.026,1.593-1.4,1.4-2.486,1.4q-26.947-.005-53.893-.024-34.609-.009-69.217,0c-1.1,0-2.429.255-2.676-1.231-.2-1.191.669-1.621,1.8-1.466a5.382,5.382,0,0,0,2.75.247q10.21.054,20.421.04C-265.72,392.276-265.064,392.632-264.658,391.933Zm24.506-96.51,1.3.007.158.146.149-.153,1.758,0c.643.3,1.29.635,1.844-.152,1.458-2.751,1.188-3.219-1.748-3.215-8.591.012-17.182,0-25.774,0-2.829,0-3.084.442-1.963,3.326,1.364.759,2.818.216,4.21.206C-253.528,295.544-246.836,295.9-240.152,295.423Zm23.169,66.658c1.231-5.619-.486-10.779-2.471-15.9a31.511,31.511,0,0,0-9.11-12.408c-8.2-7.2-12.163-16.3-12.427-27.178a9.21,9.21,0,0,1,3.82-8.131c.5-.38,1.521-.615,1.122-1.41-.326-.65-1.211-.234-1.856-.1l-24.064-.086c-.421-.085-.975-.219-1.132.243-.248.729.457,1.027.931,1.327,2.982,1.894,3.831,4.657,3.844,8.074a35.6,35.6,0,0,1-8.384,23.507c-3.133,2.98-6.5,5.73-9.2,9.144-.391.495-1.228.861-.771,1.685.359.647,1.065.351,1.629.355,3.065.021,6.13,0,9.194.048.77.013,2.075-.485,2.123.669.052,1.237-1.273.758-2.024.764-3.66.029-7.322.042-10.981-.038-2.128-.046-2.707,1.789-2.821,3-.131,1.394,1.571.658,2.44.693,2.379.1,4.766.029,7.15.007.711-.007,1.576,0,1.617.826.048.985-.905.783-1.545.783-3.064,0-6.131.045-9.192-.07-2-.076-2.274,1.5-2.383,2.682-.134,1.461,1.317.914,2.128.922,4.6.043,9.2,0,13.793.047.825.009,2.43-.477,1.552,1.47l-.987.061-14.861.028-.985-.053c-1.8.126-1.456,1.64-1.478,2.634-.03,1.3,1.2.894,1.957.9,3.31.042,6.621.006,9.932.022.79,0,2.024-.427,2.111.725.1,1.381-1.208,1.082-2.1,1.084q-5.221.014-10.441-.009c-.95,0-1.717.177-1.652,1.369.055.988.239,1.9,1.489,1.976.677.039,1.358-.008,2.036.014,4.995.165,10.008-.4,14.985.406.185,1.7-1.029,1.4-2.016,1.4-4.588.006-9.177-.006-13.765.014-.641,0-1.484-.289-1.824.486-.347.79.282,1.465.679,2.08.627.971,1.715,1.025,2.731,1.031q4.077.022,8.153-.066c.668-.014,1.586-.356,1.655.567.08,1.054-.922.981-1.693.982q-4.2.009-8.408.023c-2.538-.243-2.441.526-1.583,2.713a33.158,33.158,0,0,0,8.212,11.81,31.852,31.852,0,0,0,22.634,8.954c8.125.043,15.35-3.237,21.49-8.572A30.777,30.777,0,0,0-216.983,362.081Zm3.029-3.547.03,1.044a36.339,36.339,0,0,1-12.108,26.192c-2.779,2.55-2.507,3.47,1.172,5.06a13.49,13.49,0,0,0,1.692.49,5.476,5.476,0,0,0,1.428.4c13.688.017,27.378.131,41.063-.052,6.169-.083,10.076-6.148,8.228-12.135l-15.427-28.007c-.73-.643-.378-1.6-.686-2.376-3.745-9.471-4.124-19.357-3.429-29.342.081-1.163-.251-1.33-1.158-1.33q-8.164,0-16.327,0c-.867,0-1.263.127-1.191,1.307.56,9.19.446,18.3-2.477,27.231-.572,1.749-2.565,3.324-1.473,5.556Zm12.423-41.655v-.032c3.736,0,7.473-.031,11.209.018,1.189.015,2.2.143,2.215-1.568.011-1.515-.451-2.066-2.064-2.049q-11.214.12-22.431-.007c-1.468-.015-1.939.44-1.94,1.873,0,1.534.7,1.819,2.058,1.791C-208.832,316.83-205.181,316.88-201.53,316.88ZM-232.5,392.333c.961-.281,2.41.447,2.778-.928a1.4,1.4,0,0,0-1.622-1.52c-1.147.269-2.854.383-3.1,1.664C-234.663,392.711-233.2,392.05-232.5,392.333Z" transform="translate(429.143 -256.39)" fill="#1751a3"/>
      <path id="Path_2353" data-name="Path 2353" d="M-129.532,308.256c.176-2.815,2.45-4.674,5.454-4.457,2.4.172,4.713,2.721,4.518,4.968a5.458,5.458,0,0,1-5.38,4.789A5.429,5.429,0,0,1-129.532,308.256Z" transform="translate(350.052 -263.499)" fill="#94e0fc"/>
      <path id="Path_2354" data-name="Path 2354" d="M-26.086,490.223c1.191,0,2.381-.014,3.572.009.852.016,1.54.365,1.577,1.3s-.631,1.393-1.477,1.411c-2.465.051-4.932.074-7.4.014a1.38,1.38,0,0,1-1.479-1.433,1.5,1.5,0,0,1,1.633-1.3C-28.468,490.206-27.277,490.221-26.086,490.223Z" transform="translate(302.007 -354.675)" fill="#1751a3"/>
      <path id="Path_2355" data-name="Path 2355" d="M-555.808,490.26c1.185,0,2.371-.02,3.556.007.891.021,1.457.47,1.419,1.41a1.251,1.251,0,0,1-1.307,1.286c-2.538.036-5.079.036-7.617-.022a1.338,1.338,0,0,1-1.359-1.272c-.028-.892.64-1.348,1.5-1.376,1.269-.04,2.54-.01,3.81-.01Z" transform="translate(561.116 -354.693)" fill="#1751a3"/>
      <path id="Path_2356" data-name="Path 2356" d="M-106.882,287.745a2.936,2.936,0,0,1,3.005-2.75c2.111-.038,3.022,1.407,3.417,3.134.282,1.233-1.92,3.314-3.3,3.369C-105.336,291.561-106.883,289.877-106.882,287.745Zm3.239,1.793c.679-.093,1.374-.421,1.268-1.365-.094-.838-.421-1.669-1.516-1.64a1.322,1.322,0,0,0-1.417,1.412C-105.337,288.954-104.806,289.483-103.643,289.538Z" transform="translate(338.972 -254.311)" fill="#56dcfa"/>
      <path id="Path_2357" data-name="Path 2357" d="M-121.457,283.112c-1.38-.146-2.12-.834-2.177-1.962a1.794,1.794,0,0,1,1.884-1.97,1.807,1.807,0,0,1,1.99,1.863C-119.707,282.286-120.649,282.737-121.457,283.112Z" transform="translate(347.166 -251.467)" fill="#56dcfa"/>
      <path id="Path_2358" data-name="Path 2358" d="M-262.909,490.083c-.407.7-1.063.343-1.605.343q-10.21.006-20.421-.04a5.382,5.382,0,0,1-2.75-.247C-279.426,489.829-271.167,489.937-262.909,490.083Z" transform="translate(427.394 -354.54)" fill="#40c6fb"/>
      <path id="Path_2359" data-name="Path 2359" d="M-299.327,490.351c-1.828-.17-3.688.339-5.5-.254C-302.982,490-301.123,489.5-299.327,490.351Z" transform="translate(435.775 -354.502)" fill="#40c6fb"/>
      <path id="Path_2360" data-name="Path 2360" d="M-306.537,485.529a9.352,9.352,0,0,1-.264-3.411A4.447,4.447,0,0,1-306.537,485.529Z" transform="translate(436.755 -350.715)" fill="#40c6fb"/>
      <path id="Path_2361" data-name="Path 2361" d="M-380.548,337.555a19.774,19.774,0,0,1,3.272,9.025c.734,6.689.94,13.362-2.261,19.618a1.592,1.592,0,0,0-.541,1.583l0-.008a4.785,4.785,0,0,0-2.37,2.219,36.888,36.888,0,0,1-8.194,8.63c-3.991,2.991-8.056,5.45-13.429,5.082-4.913-.336-9.867-.083-14.8-.09-.287-1.76.911-3.219,1-4.923.042-.846.807-.93,1.551-.878,9.444.667,16.68-3.38,22.454-10.538,3.8.827,6.9-.477,9.552-3.128,2.7-2.7,3.106-6.077,2.736-9.66-.635-5.157-2.853-9.016-8.377-10.1a2.111,2.111,0,0,1-1.628-1.418,25.757,25.757,0,0,0-12.4-12.877c-.939-.483-2.481-.732-2.035-2.446.4-1.528,1.7-1.039,2.734-1.2,2.822-.431,5.578-1.245,7.483-3.435,1.473-1.692,2.581-1.8,4.008-.181a12.429,12.429,0,0,0,1.119,1l-.876.026a4.225,4.225,0,0,0-3.878,1.407c-1.487,1.409-3.412,1.784-5.16,2.571-.839.378-1.98-.29-2.879.716a4.027,4.027,0,0,0,3.888.692,19.151,19.151,0,0,0,7.831-4.392c2.353,1.235,3.936,3.285,5.68,5.2,1.2,1.313,1.617,3.32,3.528,3.985l-.052-.024C-382.384,335.469-382.333,337.015-380.548,337.555Z" transform="translate(491.572 -272.255)" fill="#94e0fc"/>
      <path id="Path_2362" data-name="Path 2362" d="M-492.278,475.734c-.606-.591-.476-1.109.034-1.73,1.651-2.013,3.247-4.073,6.014-4.626,4.653.022,9.306.111,13.958.04,2.511-.038,5.052.416,7.538-.309q22.276-.32,44.552,0a.55.55,0,0,0,.941,0l2.655-.008c3.078.679,6.188.254,9.285.249a9.745,9.745,0,0,1,5.994,4.435,2.553,2.553,0,0,1,.441,1.848q-44.048-.016-88.1-.026C-490.069,475.613-491.174,475.692-492.278,475.734Z" transform="translate(527.648 -344.275)" fill="#56dcfa"/>
      <path id="Path_2363" data-name="Path 2363" d="M-436.775,460.351q-16.459,0-32.917,0c-1.226,0-2.421.2-2.45-1.666-.028-1.847,1.018-2.022,2.467-2.021q33.173.021,66.345-.018c1.412,0,2.341.413,2.376,1.958.039,1.7-1.039,1.775-2.393,1.77C-414.49,460.336-425.632,460.355-436.775,460.351Z" transform="translate(517.603 -338.26)" fill="#fafbfe"/>
      <path id="Path_2364" data-name="Path 2364" d="M-426.61,300.6c1.512,4.992,4,9.146,9.322,10.875a1.26,1.26,0,0,1,.877,1.393,4.52,4.52,0,0,1-.12,1.008c-1.893,6.43-.008,5.3-6.617,4.161-3.915-.673-7.8-1.525-11.7-2.3a2.8,2.8,0,0,0,1.032-2.147c.873-5.381,2.471-10.625,3.094-16.058,1.023-.135,1-.866.924-1.625l.534-3c1.929.782.713,2.162.718,3.372C-428.535,297.942-429.978,300.4-426.61,300.6Z" transform="translate(499.363 -258.181)" fill="#40c6fb"/>
      <path id="Path_2365" data-name="Path 2365" d="M-421.265,284.4c-3.368-.2-1.925-2.655-1.933-4.318-.005-1.209,1.21-2.59-.718-3.372a10.007,10.007,0,0,1,.337-2.749c1.375-4.655,1.565-9.585,3.268-14.168,4.9.973,9.795,1.956,14.7,2.912,1.221.239,1.717.68,1.315,2.086-.612,2.139-.836,3.621-4.045,3.7C-415.293,268.672-422.156,274.408-421.265,284.4Z" transform="translate(494.018 -241.988)" fill="#56dcfa"/>
      <path id="Path_2367" data-name="Path 2367" d="M-428.145,259.25c-1.7,4.583-1.892,9.513-3.268,14.168a10.005,10.005,0,0,0-.337,2.749q-.268,1.5-.534,3c-.99.153-1.018.854-.924,1.624-.623,5.433-2.221,10.676-3.094,16.058A2.805,2.805,0,0,1-437.333,299c-1.029.236-1.608-.9-2.576-.846a8.951,8.951,0,0,1,.222-2.52c.693-3.744,1.294-7.506,1.928-11.261,1.642-4.948,2.28-10.124,3.491-15.17.8-3.316,1-6.757,2.138-10A3.915,3.915,0,0,1-428.145,259.25Z" transform="translate(501.851 -241.441)" fill="#94e0fc"/>
      <path id="Path_2368" data-name="Path 2368" d="M-440.65,403.811a65.622,65.622,0,0,1-10.384-2.024,71.269,71.269,0,0,0-8.237-1.6c-5.095-.936-10.187-1.887-15.289-2.779-1.339-.234-2.524-.295-2.185-2.258.355-2.058,1.4-1.411,2.736-1.154,10.671,2.055,21.36,4.008,32.044,5.993.835.155,1.682.268,2.5.478,1.014.26,2.335.206,1.99,1.951-.286,1.45-1.137,1.746-2.417,1.453A5.124,5.124,0,0,0-440.65,403.811Z" transform="translate(519.883 -307.471)" fill="#fafbfe"/>
      <path id="Path_2369" data-name="Path 2369" d="M-447.522,485.548q22.455,0,44.909-.022c.706,0,1.461-.242,1.561.725.1,1.017-.734.948-1.411.974-.34.013-.681,0-1.021,0q-43.763,0-87.527-.035c-1.1,0-3.062.568-3.075-.794-.015-1.554,1.906-.744,2.929-.748,14.545-.057,29.09-.039,43.636-.039Z" transform="translate(528.335 -352.341)" fill="#0f8ef9"/>
      <path id="Path_2370" data-name="Path 2370" d="M-419.431,427.727c4.936.007,9.89-.246,14.8.09,5.373.368,9.438-2.091,13.429-5.082a36.889,36.889,0,0,0,8.194-8.63,4.786,4.786,0,0,1,2.37-2.219c-2.3,6.577-6.854,11.394-12.211,15.56-4.19,3.258-8.788,5.085-14.285,4.54a91.76,91.76,0,0,0-10.69-.079c-1.9.035-2.883-.314-1.773-2.431A4.773,4.773,0,0,0-419.431,427.727Z" transform="translate(492.132 -316.368)" fill="#56dcfa"/>
      <path id="Path_2371" data-name="Path 2371" d="M-428.468,422.319a91.393,91.393,0,0,1-2.416,13c-.581,2.524-2.868,1.148-4.315,1.193-1.773.055-.858-1.443-.7-2.3.767-4.18,1.6-8.348,2.406-12.52C-431.677,420.76-430.214,422.674-428.468,422.319Z" transform="translate(500.063 -321.038)" fill="#fafbfe"/>
      <path id="Path_2372" data-name="Path 2372" d="M-372.459,385.333c-3.709-.034-7.3-3.6-7.241-7.207.054-3.548,3.793-7.239,7.289-7.194,3.431.044,7.2,3.824,7.224,7.238C-365.168,381.785-368.8,385.366-372.459,385.333Zm5.347-6.462c-.053-3.238-2.5-5.937-5.369-5.927a5.69,5.69,0,0,0-5.27,5.207,5.638,5.638,0,0,0,5.479,5.229C-369.788,383.3-367.079,380.933-367.112,378.87Z" transform="translate(472.395 -296.339)" fill="#94e0fc"/>
      <path id="Path_2373" data-name="Path 2373" d="M-432.183,258.357c-1.14,3.24-1.343,6.682-2.138,10-1.211,5.046-1.85,10.223-3.492,15.169-.692-.681-1.68,2.158-2.23-.189l.112-.868c.618-.445.481-1.069.4-1.68,1.152-7.534,3.05-14.916,4.559-22.377.13-.641.11-1.446,1.068-1.464S-432.235,257.248-432.183,258.357Z" transform="translate(501.905 -240.593)" fill="#56dcfa"/>
      <path id="Path_2374" data-name="Path 2374" d="M-406.626,236.956c-3.067-1.021-7.143-.407-9.407-4.129-.4-.657-1.056-1.317-.519-2.058.526-.725,1.243-.018,1.866.105,3.918.776,7.832,1.573,11.749,2.351.573.113,1.29.022,1.481.736.187.7-.432,1.023-.884,1.409A6.623,6.623,0,0,1-406.626,236.956Z" transform="translate(490.515 -227.634)" fill="#fafbfe"/>
      <path id="Path_2375" data-name="Path 2375" d="M-491.892,482.111c1.1-.042,2.209-.121,3.313-.12q44.049,0,88.1.026c-.512.674-1.242.415-1.891.415q-43.649.009-87.3-.009C-490.415,482.423-491.21,482.627-491.892,482.111Z" transform="translate(527.262 -350.653)" fill="#0f8ef9"/>
      <path id="Path_2376" data-name="Path 2376" d="M-434.624,341.014c5.24.577,10.3,2.057,15.46,3.053.831.16,1.043.786.729,1.57-.413,1.031-1.2,1.022-2.112.809-3.222-.753-6.454-1.459-9.675-2.219-1.639-.387-3.377-.335-4.925-1.115Q-434.884,342.062-434.624,341.014Z" transform="translate(499.51 -281.708)" fill="#40c6fb"/>
      <path id="Path_2377" data-name="Path 2377" d="M-357.611,385.884c.369,3.583-.032,6.956-2.736,9.66-2.65,2.651-5.756,3.955-9.552,3.128a4.96,4.96,0,0,1,4.567-3.595C-361.193,394.515-358.453,390.95-357.611,385.884Z" transform="translate(467.601 -303.652)" fill="#56dcfa"/>
      <path id="Path_2378" data-name="Path 2378" d="M-405,248.1c.071,2.35-1.362,3.646-3.655,3.282-.829-.131-1.659-.275-2.475-.47-3.034-.727-3.389-1.487-2.2-4.351.279-.673.664-.944,1.334-.813,2.064.406,4.125.82,6.182,1.257A.934.934,0,0,1-405,248.1Z" transform="translate(489.148 -235.102)" fill="#94e0fc"/>
      <path id="Path_2379" data-name="Path 2379" d="M-442.731,308.594c.549,2.347,1.538-.492,2.23.189-.633,3.755-1.234,7.517-1.927,11.261a8.952,8.952,0,0,0-.222,2.52c-3.224-.513-3.235-.516-2.476-3.478C-444.236,315.61-444.132,311.954-442.731,308.594Z" transform="translate(504.593 -265.853)" fill="#40c6fb"/>
      <path id="Path_2380" data-name="Path 2380" d="M-438.413,350.738q5.339,1.06,10.676,2.123c.761.153,1.238.586,1.064,1.42s-.75.923-1.538.833a44.394,44.394,0,0,1-10.677-2.291c-.7-.265-1.3-.53-1.111-1.381C-439.812,350.573-439.117,350.551-438.413,350.738Z" transform="translate(501.9 -286.417)" fill="#94e0fc"/>
      <path id="Path_2382" data-name="Path 2382" d="M-432.265,362.184c.542,1.04,3.024-.661,2.916,1.622-.046.988.049,3.19-2.07,2.5-1.173-.383-3.371-.028-3.134-2.341C-434.445,362.914-434.094,361.745-432.265,362.184Z" transform="translate(499.229 -292.015)" fill="#fafbfe"/>
      <path id="Path_2383" data-name="Path 2383" d="M-365.563,325.922l.876-.026c3.343,2.9,6.815,5.694,8.135,10.205-1.911-.665-2.332-2.672-3.528-3.985-1.744-1.916-3.327-3.965-5.681-5.2Q-365.663,326.419-365.563,325.922Z" transform="translate(465.577 -274.314)" fill="#fafbfe"/>
      <path id="Path_2384" data-name="Path 2384" d="M-425.806,419.15c-1.745.355-3.209-1.559-5.026-.623a11.928,11.928,0,0,1,.3-1.466c.248-.749-.129-2.089.914-2.1a7.229,7.229,0,0,1,4.056.929C-424.454,416.661-425.79,418.021-425.806,419.15Z" transform="translate(497.4 -317.868)" fill="#94e0fc"/>
      <path id="Path_2385" data-name="Path 2385" d="M-434.226,372.271c.992.686,3.122-.309,3.358,1.94a.778.778,0,0,1-1.176.8c-1.186-.884-3.341-.292-3.707-2.24C-435.876,372.115-434.986,372.071-434.226,372.271Z" transform="translate(499.812 -296.943)" fill="#fafbfe"/>
      <path id="Path_2386" data-name="Path 2386" d="M-458.559,469.083c-2.485.725-5.026.27-7.537.309-4.651.071-9.3-.017-13.958-.04.911-.668,1.963-.4,2.955-.4C-470.919,468.976-464.739,469.035-458.559,469.083Z" transform="translate(521.472 -344.249)" fill="#40c6fb"/>
      <path id="Path_2387" data-name="Path 2387" d="M-438.24,340.449q-.261,1.048-.523,2.1l-3.381-.694c-1.033-1.745.133-1.916,1.428-1.994C-439.885,340.027-438.973,339.863-438.24,340.449Z" transform="translate(503.127 -281.142)" fill="#94e0fc"/>
      <path id="Path_2388" data-name="Path 2388" d="M-443.219,338.935c-1.294.078-2.461.248-1.428,1.994a16.145,16.145,0,0,1-1.976-.216c-.718-.165-1.237-.594-.959-1.444.24-.73.587-1.625,1.532-1.177C-445.126,338.528-444,338.156-443.219,338.935Z" transform="translate(505.629 -280.22)" fill="#40c6fb"/>
      <path id="Path_2389" data-name="Path 2389" d="M-334.469,469.3c-3.1,0-6.207.43-9.285-.249C-340.653,468.934-337.545,468.533-334.469,469.3Z" transform="translate(454.815 -344.223)" fill="#40c6fb"/>
      <path id="Path_2391" data-name="Path 2391" d="M-345.789,349.359c-1.786-.54-1.836-2.086-2.052-3.536C-346.6,346.681-346.285,348.072-345.789,349.359Z" transform="translate(456.813 -284.06)" fill="#fafbfe"/>
      <path id="Path_2392" data-name="Path 2392" d="M-407.84,289.857c.034.521-.031,1.076-.609,1.182-.389.072-.328-.443-.421-.725l.426-.5Z" transform="translate(486.659 -256.67)" fill="#fafbfe"/>
      <path id="Path_2393" data-name="Path 2393" d="M-439.456,303.607c.084.611.221,1.235-.4,1.681A1.96,1.96,0,0,1-439.456,303.607Z" transform="translate(501.827 -263.414)" fill="#40c6fb"/>
      <path id="Path_2395" data-name="Path 2395" d="M-342.914,410.386a1.592,1.592,0,0,1,.541-1.583C-342.4,409.382-342.367,409.983-342.914,410.386Z" transform="translate(454.409 -314.86)" fill="#56dcfa"/>
      <path id="Path_2396" data-name="Path 2396" d="M-349.85,469.27a.55.55,0,0,1-.941,0Z" transform="translate(458.256 -344.431)" fill="#40c6fb"/>
      <path id="Path_2397" data-name="Path 2397" d="M-402.868,284.8a.853.853,0,0,1-.987.592A.837.837,0,0,1-402.868,284.8Z" transform="translate(484.207 -254.212)" fill="#94e0fc"/>
      <path id="Path_2398" data-name="Path 2398" d="M-407.433,289.294l-.6-.04.473-.588q.1.107.194.219a1.91,1.91,0,0,0-.085.432Z" transform="translate(486.252 -256.107)" fill="#94e0fc"/>
      <path id="Path_2399" data-name="Path 2399" d="M-401.341,284.148l-.628.338A.476.476,0,0,1-401.341,284.148Z" transform="translate(483.285 -253.888)" fill="#94e0fc"/>
      <path id="Path_2400" data-name="Path 2400" d="M-162.52,450.937a13.485,13.485,0,0,1-1.692-.49c-3.679-1.59-3.951-2.511-1.172-5.06a36.339,36.339,0,0,0,12.108-26.192c3.739.4,6.992-.971,10.162-2.729,4.557-2.527,9.2-4.83,14.647-4.382.708.058,1.145-.2,1.239-.937l15.426,28.007c-.9,3.464-3.934,4.394-6.692,5.656a203.619,203.619,0,0,0-21.884.43c-1.142.111-1.394.074-1.121,1.582.278,1.533-.266,2.863,2.042,2.718.5-.032.465.8.5,1.306Z" transform="translate(368.495 -316.006)" fill="#94e0fc"/>
      <path id="Path_2401" data-name="Path 2401" d="M-214.407,304.093c.645-.133,1.53-.549,1.856.1.4.8-.624,1.03-1.122,1.41a9.21,9.21,0,0,0-3.82,8.131c.265,10.876,4.226,19.976,12.427,27.178a31.511,31.511,0,0,1,9.11,12.407c-1.894,1.289-4.268.686-6.26,1.589l-4.054.093a5.791,5.791,0,0,0-2.424-.635,28.677,28.677,0,0,1-13.174-6.682c-4.607-4.061-9.421-7.611-15.5-9.087-1.949-.473-3.895-.959-5.843-1.44a35.6,35.6,0,0,0,8.384-23.507c-.013-3.417-.862-6.18-3.844-8.074-.474-.3-1.179-.6-.931-1.328.157-.462.712-.329,1.132-.243.819.676,1.795.4,2.7.4,5.1.028,10.211.065,15.315-.012C-218.44,304.366-216.389,304.824-214.407,304.093Z" transform="translate(405.644 -263.528)" fill="#fafbfe"/>
      <path id="Path_2402" data-name="Path 2402" d="M-258.325,369.051c1.948.481,3.893.967,5.843,1.44,6.081,1.476,10.9,5.026,15.5,9.087a28.677,28.677,0,0,0,13.174,6.682,5.8,5.8,0,0,1,2.424.634,15.537,15.537,0,0,0,.38,2.949c.519,2.6,1.684,5.06,1.608,7.775a5.111,5.111,0,0,0-1.745.182,9.012,9.012,0,0,1-8.687-.035,4.145,4.145,0,0,0-2.423-.591c-5.323,1.022-10.78-.182-16.059.978-2.57.565-5.72-.005-7.291,3.042-4.977-.809-9.991-.241-14.985-.406-.678-.022-1.359.025-2.036-.014-1.25-.072-1.435-.988-1.489-1.976-.065-1.193.7-1.373,1.652-1.369q5.22.019,10.441.009c.888,0,2.2.3,2.1-1.084-.086-1.152-1.321-.72-2.111-.725-3.31-.016-6.622.019-9.932-.022-.753-.009-1.987.4-1.957-.9.022-.994-.32-2.508,1.478-2.634.307.412.634.447.985.053l14.861-.028c.356.425.685.4.987-.06.877-1.947-.727-1.461-1.552-1.47-4.6-.051-9.2,0-13.793-.047-.81-.008-2.262.54-2.128-.922.109-1.185.379-2.759,2.383-2.682,3.061.115,6.128.068,9.192.07.64,0,1.593.2,1.545-.783-.041-.83-.906-.833-1.617-.826-2.384.022-4.771.09-7.15-.007-.869-.035-2.572.7-2.44-.693.114-1.209.693-3.044,2.821-3,3.659.08,7.321.067,10.981.038.751-.006,2.076.473,2.024-.764-.048-1.154-1.353-.657-2.123-.669-3.064-.05-6.13-.027-9.195-.047-.564,0-1.27.292-1.629-.355-.457-.824.38-1.19.771-1.685C-264.82,374.781-261.458,372.031-258.325,369.051Z" transform="translate(420.757 -295.419)" fill="#56dcfa"/>
      <path id="Path_2403" data-name="Path 2403" d="M-254.825,428.079c1.572-3.047,4.721-2.477,7.291-3.042,5.278-1.16,10.736.043,16.059-.978a4.145,4.145,0,0,1,2.423.591,9.012,9.012,0,0,0,8.687.035,5.124,5.124,0,0,1,1.746-.182,21.812,21.812,0,0,1-.516,7.783c-.987,4.465-2.054,9-5.192,12.619-.417.481-1.183.89-.314,1.619-.168.277-.27.7-.514.809a36.987,36.987,0,0,1-15.187,3.632,33.8,33.8,0,0,1-17.62-5.072c-4.71-2.821-8.851-6.237-11.351-11.292q4.2-.012,8.408-.024c.771,0,1.773.072,1.693-.982-.069-.923-.987-.581-1.655-.567q-4.075.086-8.153.066c-1.016-.006-2.1-.06-2.731-1.031-.4-.614-1.026-1.289-.679-2.08.34-.775,1.183-.484,1.824-.486,4.588-.019,9.177-.008,13.765-.014C-255.854,429.482-254.64,429.777-254.825,428.079Z" transform="translate(419.982 -322.305)" fill="#40c6fb"/>
      <path id="Path_2404" data-name="Path 2404" d="M-114.823,379.515c-.094.734-.531,1-1.239.937-5.451-.448-10.09,1.855-14.647,4.382-3.17,1.758-6.423,3.129-10.162,2.729q-.015-.522-.03-1.044c.96-2.116.23-4.045-.663-5.955-1.092-2.232.9-3.808,1.473-5.556,2.923-8.933,3.036-18.041,2.477-27.231-.072-1.18.324-1.307,1.191-1.307q8.164,0,16.327,0c.907,0,1.239.167,1.158,1.33-.695,9.986-.316,19.871,3.429,29.342C-115.2,377.919-115.553,378.871-114.823,379.515Z" transform="translate(356.09 -284.374)" fill="#fafbfe"/>
      <path id="Path_2405" data-name="Path 2405" d="M-268.271,438.4c2.5,5.055,6.641,8.471,11.351,11.292a33.8,33.8,0,0,0,17.62,5.072,36.986,36.986,0,0,0,15.187-3.632c.244-.11.346-.532.514-.81a10.763,10.763,0,0,0,6.665-5.107c1.905-.194,2.9-1.445,3.561-3.076l.024-.024a.993.993,0,0,0,.979-1.038c2.627-2.634,4.048-5.994,5.59-9.281a30.778,30.778,0,0,1-10.738,21.509c-6.14,5.335-13.365,8.616-21.49,8.572a31.852,31.852,0,0,1-22.635-8.954,33.159,33.159,0,0,1-8.212-11.81C-270.712,438.927-270.809,438.158-268.271,438.4Z" transform="translate(418.941 -326.105)" fill="#0f8ef9"/>
      <path id="Path_2406" data-name="Path 2406" d="M-154.244,416.58c-1.542,3.287-2.963,6.647-5.59,9.281-1.108-1.108-.242-1.88.389-2.79,1.292-1.863.366-5.806-1.436-6.435.064-4.9.214-9.812-2.094-14.366,1.992-.9,4.366-.3,6.26-1.589C-154.73,405.8-153.013,410.961-154.244,416.58Z" transform="translate(366.405 -310.888)" fill="#56dcfa"/>
      <path id="Path_2407" data-name="Path 2407" d="M-128.1,339.849c-3.651,0-7.3-.05-10.952.026-1.356.028-2.059-.258-2.058-1.791,0-1.433.472-1.887,1.94-1.873q11.214.114,22.431.007c1.613-.017,2.075.534,2.064,2.049-.013,1.711-1.026,1.583-2.215,1.568-3.736-.049-7.473-.018-11.209-.018Z" transform="translate(355.709 -279.359)" fill="#fafbfe"/>
      <path id="Path_2408" data-name="Path 2408" d="M-239.332,298.074c-1.121-2.884-.867-3.325,1.963-3.326,8.592,0,17.183.015,25.774,0,2.936,0,3.207.463,1.749,3.214l-1.844.153-1.756,0a.181.181,0,0,0-.31.008l-1.3-.007C-223.146,297.794-231.239,297.893-239.332,298.074Z" transform="translate(404.05 -259.081)" fill="#fafbfe"/>
      <path id="Path_2409" data-name="Path 2409" d="M-157.992,477.743l23.563-.09c4.878.012,9.755.041,14.632.03,3.551-.008,5.7-2.269,5.831-6.067,2.758-1.262,5.8-2.192,6.692-5.656,1.849,5.987-2.058,12.052-8.227,12.135-13.685.183-27.375.069-41.063.052A5.474,5.474,0,0,1-157.992,477.743Z" transform="translate(363.967 -342.813)" fill="#40c6fb"/>
      <path id="Path_2410" data-name="Path 2410" d="M-238.738,301.1c8.093-.181,16.186-.28,24.276.04-6.687.473-13.379.121-20.066.166C-235.92,301.312-237.374,301.856-238.738,301.1Z" transform="translate(403.456 -262.104)" fill="#40c6fb"/>
      <path id="Path_2411" data-name="Path 2411" d="M-209.869,304.254c-1.981.731-4.033.273-6.047.3-5.1.077-10.21.039-15.315.012-.907,0-1.884.275-2.7-.4Z" transform="translate(401.106 -263.688)" fill="#94e0fc"/>
      <path id="Path_2412" data-name="Path 2412" d="M-178.132,488.632c-.7-.283-2.167.378-1.944-.785.246-1.281,1.953-1.394,3.1-1.664a1.4,1.4,0,0,1,1.622,1.521C-175.722,489.078-177.171,488.351-178.132,488.632Z" transform="translate(374.779 -352.689)" fill="#fafbfe"/>
      <path id="Path_2413" data-name="Path 2413" d="M-141.256,413.2c.893,1.91,1.623,3.839.663,5.955Q-140.925,416.178-141.256,413.2Z" transform="translate(355.783 -317.01)" fill="#94e0fc"/>
      <path id="Path_2414" data-name="Path 2414" d="M-184.64,301.2l1.844-.153C-183.35,301.831-184,301.495-184.64,301.2Z" transform="translate(377 -262.16)" fill="#40c6fb"/>
      <path id="Path_2415" data-name="Path 2415" d="M-269.858,414.154c-.35.393-.678.359-.985-.053Z" transform="translate(419.157 -317.451)" fill="#40c6fb"/>
      <path id="Path_2416" data-name="Path 2416" d="M-238.843,414.032c-.3.461-.631.485-.987.06Z" transform="translate(403.99 -317.417)" fill="#40c6fb"/>
      <path id="Path_2417" data-name="Path 2417" d="M-188.683,301.264a.181.181,0,0,1,.31-.008l-.151.153Z" transform="translate(378.977 -262.223)" fill="#40c6fb"/>
      <path id="Path_2418" data-name="Path 2418" d="M-102.137,291.012c-1.163-.055-1.694-.585-1.665-1.593a1.322,1.322,0,0,1,1.417-1.412c1.1-.029,1.422.8,1.516,1.64C-100.763,290.591-101.459,290.919-102.137,291.012Z" transform="translate(337.466 -255.784)" fill="#94e0fc"/>
      <path id="Path_2419" data-name="Path 2419" d="M-376.78,325.866q-.1.5-.2.994a19.146,19.146,0,0,1-7.831,4.392,4.028,4.028,0,0,1-3.888-.692c.9-1.006,2.04-.338,2.879-.716,1.748-.787,3.673-1.161,5.16-2.571A4.225,4.225,0,0,1-376.78,325.866Z" transform="translate(476.794 -274.258)" fill="#56dcfa"/>
      <path id="Path_2420" data-name="Path 2420" d="M-426.8,300.409c-.093-.77-.065-1.471.924-1.624C-425.806,299.543-425.781,300.274-426.8,300.409Z" transform="translate(495.447 -261.056)" fill="#56dcfa"/>
      <path id="Path_2421" data-name="Path 2421" d="M-396.606,288.665l2.943,1.748c3.235,5.026,3.247,7.908.046,11.1-3.318,3.307-7.765,3.229-11-.194a7.446,7.446,0,0,1,.557-11.03c.441-.385.913-.734,1.37-1.1h-.021a1.588,1.588,0,0,0,1.533-.56l-.014.009A7,7,0,0,1-396.606,288.665Zm-8.635,7.688a6.569,6.569,0,0,0,6.364,6.075,6.494,6.494,0,0,0,6.11-6.32,6.383,6.383,0,0,0-6.23-6.164A6.364,6.364,0,0,0-405.241,296.354Z" transform="translate(485.645 -255.911)" fill="#1751a3"/>
      <path id="Path_2422" data-name="Path 2422" d="M-406.9,289.526a1.911,1.911,0,0,1,.085-.432C-406.351,289.335-406.578,289.439-406.9,289.526Z" transform="translate(485.695 -256.316)" fill="#fafbfe"/>
      <path id="Path_2423" data-name="Path 2423" d="M-365.246,380.8c.034,2.063-2.675,4.431-5.159,4.509a5.638,5.638,0,0,1-5.479-5.229,5.69,5.69,0,0,1,5.27-5.207C-367.744,374.859-365.3,377.558-365.246,380.8Zm-1.591-.59a3.888,3.888,0,0,0-3.757-3.742,3.992,3.992,0,0,0-3.694,3.559,4.007,4.007,0,0,0,3.786,3.755A3.869,3.869,0,0,0-366.837,380.206Z" transform="translate(470.528 -298.265)" fill="#1751a3"/>
      <path id="Path_2426" data-name="Path 2426" d="M-93.943,476.948c-.131,3.8-2.28,6.059-5.831,6.067-4.877.011-9.754-.018-14.632-.03-.035-.5,0-1.338-.5-1.306-2.308.145-1.763-1.185-2.042-2.718-.274-1.508-.022-1.471,1.121-1.582A203.635,203.635,0,0,1-93.943,476.948Z" transform="translate(343.944 -348.144)" fill="#56dcfa"/>
      <path id="Path_2427" data-name="Path 2427" d="M-171.1,403.79c2.307,4.554,2.158,9.466,2.094,14.366-.774,3.615-.952,7.384-2.816,10.72a3.485,3.485,0,0,0-.7,2.643,10.763,10.763,0,0,1-6.665,5.107c-.869-.728-.1-1.137.314-1.618,3.138-3.623,4.206-8.154,5.192-12.619a21.813,21.813,0,0,0,.516-7.783c.075-2.714-1.09-5.18-1.609-7.775a15.538,15.538,0,0,1-.38-2.949Z" transform="translate(374.526 -312.409)" fill="#94e0fc"/>
      <path id="Path_2428" data-name="Path 2428" d="M-165.831,445.27a3.485,3.485,0,0,1,.7-2.643c1.864-3.336,2.042-7.1,2.816-10.72,1.8.628,2.728,4.572,1.436,6.435-.631.91-1.5,1.682-.389,2.79a.993.993,0,0,1-.98,1.038l-.243-.219.22.244C-162.934,443.825-163.925,445.076-165.831,445.27Z" transform="translate(367.836 -326.159)" fill="#40c6fb"/>
      <path id="Path_2429" data-name="Path 2429" d="M-403.754,297.961a6.364,6.364,0,0,1,6.245-6.41,6.383,6.383,0,0,1,6.229,6.164,6.493,6.493,0,0,1-6.11,6.32A6.569,6.569,0,0,1-403.754,297.961Z" transform="translate(484.158 -257.518)" fill="#fafbfe"/>
      <path id="Path_2430" data-name="Path 2430" d="M-365.31,381.732a3.869,3.869,0,0,1-3.665,3.572,4.007,4.007,0,0,1-3.786-3.755,3.992,3.992,0,0,1,3.694-3.559A3.888,3.888,0,0,1-365.31,381.732Z" transform="translate(469.001 -299.791)" fill="#fafbfe"/>
      <path id="Path_2431" data-name="Path 2431" d="M-159,451.807l-.22-.244.243.219Z" transform="translate(364.569 -335.772)" fill="#56dcfa"/>
    </g>
  </g>
</svg>
