<svg xmlns="http://www.w3.org/2000/svg" width="24.153" height="24.153" viewBox="0 0 24.153 24.153">
  <g id="Group_2691" data-name="Group 2691" transform="translate(0.5 0.5)">
    <path id="Path_2337" data-name="Path 2337" d="M31,19.421A11.577,11.577,0,1,0,42.574,31,11.59,11.59,0,0,0,31,19.421Zm0,22.4A10.819,10.819,0,1,1,41.817,31,10.832,10.832,0,0,1,31,41.817Z" transform="translate(-19.421 -19.421)" fill="#064862" stroke="#064862" stroke-width="1"/>
    <path id="Path_2338" data-name="Path 2338" d="M51.739,53.378h-.975a2.643,2.643,0,0,0-.532-1.281l.69-.69a.34.34,0,0,0-.481-.481l-.69.69a2.643,2.643,0,0,0-1.281-.532v-.975a.34.34,0,0,0-.681,0v.975a2.643,2.643,0,0,0-1.281.532l-.69-.69a.34.34,0,1,0-.481.481l.69.69a2.643,2.643,0,0,0-.532,1.281H44.52a.34.34,0,1,0,0,.681h.975a2.643,2.643,0,0,0,.532,1.281l-.691.691a.34.34,0,1,0,.481.481l.691-.691a2.643,2.643,0,0,0,1.281.532v.975a.34.34,0,1,0,.681,0v-.975a2.643,2.643,0,0,0,1.281-.532l.691.691a.34.34,0,0,0,.481-.481l-.69-.69a2.643,2.643,0,0,0,.532-1.281h.975a.34.34,0,0,0,0-.681ZM48.13,55.7a1.978,1.978,0,1,1,1.978-1.978A1.98,1.98,0,0,1,48.13,55.7Z" transform="translate(-34.585 -38.27)" fill="#064862" stroke="#064862" stroke-width="1"/>
    <path id="Path_2339" data-name="Path 2339" d="M29.1,33.053h.975a2.643,2.643,0,0,0,.532,1.281l-.69.69a.34.34,0,1,0,.481.481l.69-.69a2.642,2.642,0,0,0,1.281.532v.975a.34.34,0,0,0,.681,0v-.975a2.643,2.643,0,0,0,1.281-.532l.69.69a.34.34,0,0,0,.481-.481l-.69-.69a2.643,2.643,0,0,0,.532-1.281h.975a.34.34,0,1,0,0-.681h-.975a2.643,2.643,0,0,0-.532-1.281l.69-.69a.34.34,0,0,0-.481-.481l-.69.69a2.643,2.643,0,0,0-1.281-.532V29.1a.34.34,0,1,0-.681,0v.975a2.643,2.643,0,0,0-1.281.532l-.69-.69a.34.34,0,0,0-.481.481l.69.69a2.643,2.643,0,0,0-.532,1.281H29.1a.34.34,0,0,0,0,.681Zm3.61-2.319a1.978,1.978,0,1,1-1.978,1.978A1.98,1.98,0,0,1,32.712,30.734Z" transform="translate(-24.417 -24.417)" fill="#064862" stroke="#064862" stroke-width="1"/>
    <path id="Path_2340" data-name="Path 2340" d="M53.36,29.938A1.836,1.836,0,1,0,51.525,28.1,1.838,1.838,0,0,0,53.36,29.938Zm0-2.99A1.155,1.155,0,1,1,52.206,28.1,1.156,1.156,0,0,1,53.36,26.948Z" transform="translate(-39.429 -22.771)" fill="#064862" stroke="#064862" stroke-width="1"/>
    <path id="Path_2341" data-name="Path 2341" d="M29.285,52.028a1.784,1.784,0,0,0-2.523,2.523l1.859,1.859a1.784,1.784,0,0,0,2.523-2.523Zm1.378,3.9a1.1,1.1,0,0,1-1.56,0L27.243,54.07a1.1,1.1,0,0,1,1.56-1.56l1.859,1.859A1.1,1.1,0,0,1,30.663,55.929Z" transform="translate(-22.754 -39.417)" fill="#064862" stroke="#064862" stroke-width="1"/>
    <path id="Path_2342" data-name="Path 2342" d="M59.525,37.733a1.786,1.786,0,0,0,0,2.523l1.859,1.859a1.784,1.784,0,0,0,2.523-2.523l-1.859-1.859A1.786,1.786,0,0,0,59.525,37.733Zm3.9,3.9a1.129,1.129,0,0,1-1.56,0l-1.859-1.859a1.1,1.1,0,0,1,1.56-1.56l1.859,1.859A1.1,1.1,0,0,1,63.426,41.634Z" transform="translate(-44.361 -29.989)" fill="#064862" stroke="#064862" stroke-width="1"/>
  </g>
</svg>
