<svg xmlns="http://www.w3.org/2000/svg" width="26.047" height="27.063" viewBox="0 0 26.047 27.063">
  <g id="Group_2692" data-name="Group 2692" transform="translate(0.15 0.15)">
    <path id="Path_2343" data-name="Path 2343" d="M25.9,22.673a4.491,4.491,0,0,0-1.418-1.621l-.123-.1c-.531-.437.178.141-.5-.431-.749-.63-1.505-1.265-2.17-1.81a11.467,11.467,0,0,0-.634-13.318c.324-.344.653-.69.941-1,.353-.371.647-.68.8-.845a.494.494,0,0,0-.014-.681L22.508,2.6a1.139,1.139,0,0,0-.148-.1l-.21-.186Q21.056,1.342,19.967.364a.647.647,0,0,0-.523-.2.7.7,0,0,0-.482.312c-.273.379-.975,1.176-1.575,1.847A11.5,11.5,0,0,0,.523,12.493,11.4,11.4,0,0,0,2.584,19.05l-.819.809c-.4.395-.768.756-1.035,1.026a.493.493,0,0,0,0,.7L3.15,24a.49.49,0,0,0,.349.145h0A.5.5,0,0,0,3.849,24l1.88-1.885a11.508,11.508,0,0,0,12.494.052l.529.654c.847,1.037,1.208,1.928,2.188,3.045A3.157,3.157,0,0,0,23.3,26.924a2.874,2.874,0,0,0,1.561-.446A2.981,2.981,0,0,0,25.9,22.673ZM19.556,1.323q.965.869,1.938,1.732l.21.186a.081.081,0,0,0,.015.013c-.13.134-.279.291-.442.462-.27.284-.574.6-.876.926-.086-.092-.164-.188-.252-.278a11.579,11.579,0,0,0-1.9-1.528C18.859,2.153,19.287,1.658,19.556,1.323ZM3.5,22.952,1.779,21.233l.68-.671.726-.719c.223.267.456.528.706.777a11.607,11.607,0,0,0,1.031.9Zm1.091-3.028A10.509,10.509,0,0,1,19.45,5.061,10.509,10.509,0,0,1,4.588,19.923Zm19.738,5.72a2.094,2.094,0,0,1-2.644-.431c-.975-1.11-1.326-1.988-2.166-3.018l-.488-.6a11.683,11.683,0,0,0,1.12-.969,11.658,11.658,0,0,0,.961-1.107c.65.535,1.383,1.148,2.11,1.761.684.576-.021,0,.513.439l.125.1A3.646,3.646,0,0,1,25,23.073,2.006,2.006,0,0,1,24.326,25.643Z" transform="translate(-0.523 -0.16)" fill="#bfef4d" stroke="#caf369" stroke-miterlimit="10" stroke-width="0.3"/>
    <path id="Path_2344" data-name="Path 2344" d="M17.766,5.778A8.661,8.661,0,0,0,15.4,4.106a.524.524,0,0,0-.111-.052A8.715,8.715,0,0,0,4.306,16.728h0a8.558,8.558,0,0,0,2.772,2.664.518.518,0,0,0,.078.046A8.716,8.716,0,0,0,17.766,5.778Zm-.152,1.308a7.006,7.006,0,0,0-.9,3.76,1.677,1.677,0,0,1-.868,1.509,1.546,1.546,0,0,1-1.683.244,1.167,1.167,0,0,1-.555-.888,3.026,3.026,0,0,1-.052-.684.96.96,0,0,0-.3-.8.976.976,0,0,0-.866-.084A1.323,1.323,0,0,1,10.755,9.3a1.669,1.669,0,0,1,1.032-2.162c.289-.127.583-.243.88-.342a6.608,6.608,0,0,0,2.578-1.674,7.584,7.584,0,0,1,2.369,1.96ZM5.356,16.494a9.079,9.079,0,0,0,.562-.833,4.241,4.241,0,0,0,.646-2.5,1.329,1.329,0,0,1,.675-1.2A.792.792,0,0,1,8.3,12.05c.293.28.577.569.859.86a.711.711,0,0,0,.774.184,1.356,1.356,0,0,1,.51-.075c.243.008.311.078.32.318a1.2,1.2,0,0,1-.072.472.728.728,0,0,0,.176.812c.112.115.229.225.345.335a4.459,4.459,0,0,1,.6.647.932.932,0,0,1-.37,1.319,1.283,1.283,0,0,1-.87.291A4.785,4.785,0,0,0,7.35,18.356l-.034.026a7.714,7.714,0,0,1-1.185-.969A7.586,7.586,0,0,1,5.356,16.494Zm11.712.92a7.742,7.742,0,0,1-8.784,1.509,3.413,3.413,0,0,1,2.2-.728,2.2,2.2,0,0,0,1.536-.475,1.9,1.9,0,0,0,.6-2.692,5.392,5.392,0,0,0-.733-.793c-.075-.071-.151-.143-.227-.217a2.242,2.242,0,0,0,.088-.723,1.241,1.241,0,0,0-1.272-1.265,2.512,2.512,0,0,0-.717.084c-.257-.263-.514-.523-.779-.776a1.779,1.779,0,0,0-2.319-.177,2.273,2.273,0,0,0-1.084,2.072,3.284,3.284,0,0,1-.514,1.929c-.085.145-.18.29-.28.437A7.726,7.726,0,0,1,14.276,4.7a5.4,5.4,0,0,1-1.919,1.166c-.325.108-.649.234-.967.375A2.646,2.646,0,0,0,9.839,9.665a2.292,2.292,0,0,0,2.73,1.447,3.821,3.821,0,0,0,.073.8,2.114,2.114,0,0,0,1.06,1.558,2.258,2.258,0,0,0,1.064.269,2.882,2.882,0,0,0,1.64-.571A2.654,2.654,0,0,0,17.7,10.79a5.816,5.816,0,0,1,.549-2.78A7.746,7.746,0,0,1,17.068,17.414Z" transform="translate(-0.103 0.387)" fill="#bfef4d" stroke="#caf369" stroke-miterlimit="10" stroke-width="0.3"/>
    <circle id="Ellipse_223" data-name="Ellipse 223" cx="0.907" cy="0.907" r="0.907" transform="translate(21.717 22.534)" fill="#bfef4d" stroke="#caf369" stroke-miterlimit="10" stroke-width="0.3"/>
  </g>
</svg>
