<svg xmlns="http://www.w3.org/2000/svg" width="53.871" height="53.871" viewBox="0 0 53.871 53.871">
  <g id="Smoking" transform="translate(-0.025 0.309)">
    <circle id="Oval" cx="26.935" cy="26.935" r="26.935" transform="translate(0.025 -0.309)" fill="#fff" opacity="0.15"/>
    <g id="Layer_19" data-name="Layer 19" transform="translate(10.173 11.01)">
      <path id="Path_2327" data-name="Path 2327" d="M38.55,63H8.636A1.136,1.136,0,0,0,7.5,64.136v6.059A1.136,1.136,0,0,0,8.636,71.33H38.55a1.136,1.136,0,0,0,1.136-1.136V64.136A1.136,1.136,0,0,0,38.55,63ZM9.772,65.272h19.69v3.787H9.772Zm27.642,3.787h-5.68V65.272h5.68Z" transform="translate(-7.5 -45.582)" fill="#fff"/>
      <path id="Path_2328" data-name="Path 2328" d="M56.856,32.187a4.623,4.623,0,0,0,2.295.072,6.383,6.383,0,0,1,.81-.087.757.757,0,0,1,.405.068c.08.068.757.757.159,4.048a1.136,1.136,0,1,0,2.234.405c.568-3.124.273-5.142-.9-6.165a2.8,2.8,0,0,0-1.893-.629h-.049a8.275,8.275,0,0,0-1.113.11,2.847,2.847,0,0,1-1.212.03c-.7-.246-.659-1.2-.314-3.1a10.69,10.69,0,0,0,.242-1.8,1.136,1.136,0,0,0-2.272,0,9.467,9.467,0,0,1-.189,1.4C54.74,28.3,54.206,31.259,56.856,32.187Z" transform="translate(-36.882 -21.349)" fill="#fff"/>
      <path id="Path_2329" data-name="Path 2329" d="M67.705,24.6a5.188,5.188,0,0,0,1.541-.106,3.722,3.722,0,0,1,.814-.091c.64.034.757,1.375.784,2.17a31.65,31.65,0,0,1-.254,5.767,1.136,1.136,0,0,0,.947,1.325,1.1,1.1,0,0,0,.189,0,1.136,1.136,0,0,0,1.136-.947,33.45,33.45,0,0,0,.269-6.2c-.083-3.688-1.893-4.332-2.935-4.389a5.7,5.7,0,0,0-1.329.121,3.374,3.374,0,0,1-.89.083,1.136,1.136,0,0,1-.7-.265c-.269-.379-.064-1.443.083-2.226a9.467,9.467,0,0,0,.2-1.7,1.136,1.136,0,1,0-2.272,0,8.119,8.119,0,0,1-.182,1.287c-.239,1.265-.538,2.836.318,4a3.12,3.12,0,0,0,2.28,1.174Z" transform="translate(-43.138 -17)" fill="#fff"/>
    </g>
  </g>
</svg>
