<svg xmlns="http://www.w3.org/2000/svg" width="24.672" height="26.716" viewBox="0 0 24.672 26.716"><defs><style>.a{fill:#94b2e6;}</style></defs><g transform="translate(-19.591 -0.001)"><path class="a" d="M35.62,3.177H31.553a2.365,2.365,0,0,0-1.537-1.471A2.379,2.379,0,0,0,27.826,0,2.358,2.358,0,0,0,25.5,1.71a2.365,2.365,0,0,0-1.527,1.468H20.374a.783.783,0,0,0-.783.783V25.934a.783.783,0,0,0,.783.783H35.62a.783.783,0,0,0,.783-.783V3.96a.783.783,0,0,0-.783-.783Zm-9.432-.007a.783.783,0,0,0,.783-.783V2.355a.789.789,0,0,1,.812-.789.812.812,0,0,1,.766.822.783.783,0,0,0,.783.783.79.79,0,0,1,.789.789v.789H25.4V3.96A.79.79,0,0,1,26.189,3.171Zm8.649,21.981H21.156V4.743h2.678v.789a.783.783,0,0,0,.783.783H30.9a.783.783,0,0,0,.783-.783V4.743h3.15Z" transform="translate(0 0)"/><path class="a" d="M131.817,154.389h.789v.789a.783.783,0,1,0,1.565,0v-.789h.789a.783.783,0,1,0,0-1.565h-.789v-.789a.783.783,0,1,0-1.565,0v.789h-.789a.783.783,0,1,0,0,1.565Z" transform="translate(-105.628 -143.359)"/><path class="a" d="M107.979,271.752h-6.288a.783.783,0,1,0,0,1.565h6.288a.783.783,0,1,0,0-1.565Z" transform="translate(-77.075 -257.571)"/><path class="a" d="M107.979,332h-6.288a.783.783,0,0,0,0,1.565h6.288a.783.783,0,0,0,0-1.565Z" transform="translate(-77.075 -314.677)"/><path class="a" d="M107.979,392.252h-6.288a.783.783,0,1,0,0,1.565h6.288a.783.783,0,1,0,0-1.565Z" transform="translate(-77.075 -371.783)"/><path class="a" d="M406.784,64.418l-1.572-3.111a.783.783,0,0,0-1.4,0l-1.572,3.111a.782.782,0,0,0-.084.353V83.634a.783.783,0,0,0,.783.783h3.144a.783.783,0,0,0,.783-.783V64.771A.783.783,0,0,0,406.784,64.418ZM404.514,63.4l.789,1.562v14.75h-1.578V64.957Zm-.789,19.456V81.273H405.3v1.578Z" transform="translate(-362.606 -57.7)"/></g></svg>