<svg xmlns="http://www.w3.org/2000/svg" width="20.95" height="22.482" viewBox="0 0 20.95 22.482"><defs><style>.a{fill:#ff4a31;}</style></defs><g transform="translate(-5.729 -2.267)"><g transform="translate(5.729 2.267)"><path class="a" d="M19.914,24.749H11.608a1.068,1.068,0,0,1-1.068-1.068V21.189H8.76a1.068,1.068,0,0,1-1.068-1.068v-3.2H6.8a1.068,1.068,0,0,1-.946-1.564l1.992-3.8A9.419,9.419,0,1,1,20.982,20.4v3.277A1.068,1.068,0,0,1,19.914,24.749Zm-7.238-2.136h6.17V19.677a1.068,1.068,0,0,1,.718-1.009,7.314,7.314,0,1,0-9.589-6.841,1.07,1.07,0,0,1-.122.5l-1.29,2.458h.2A1.068,1.068,0,0,1,9.828,15.85v3.2h1.78a1.068,1.068,0,0,1,1.068,1.068Z" transform="translate(-5.729 -2.267)"/><g transform="translate(5.642 2.977)"><path class="a" d="M35.575,27a1.068,1.068,0,0,1,0-2.136,3.96,3.96,0,1,0-3.938-3.96,1.068,1.068,0,0,1-2.136,0A6.091,6.091,0,1,1,35.575,27Z" transform="translate(-29.501 -14.812)"/></g></g><g transform="translate(11.37 10.273)"><path class="a" d="M35.575,43.164A1.068,1.068,0,0,1,34.507,42.1a3.954,3.954,0,0,0-3.938-3.96,1.068,1.068,0,0,1,0-2.136,6.092,6.092,0,0,1,6.074,6.1A1.068,1.068,0,0,1,35.575,43.164Z" transform="translate(-29.501 -36)"/></g></g></svg>