<svg xmlns="http://www.w3.org/2000/svg" width="26.33" height="26.33" viewBox="0 0 26.33 26.33"><defs><style>.a{fill:#94b2e6;}</style></defs><path class="a" d="M23.829,18.632a8.447,8.447,0,0,0,.952-3.918V14.7a8.519,8.519,0,0,0-7.746-8.473V.771A.771.771,0,0,0,16.264,0h-6.2A.771.771,0,0,0,9.3.771V13.165a.771.771,0,0,0,.771.771h.778v2.327a.771.771,0,0,0,.771.771h3.1a.771.771,0,0,0,.771-.771V13.937h.778a.771.771,0,0,0,.771-.771V10.909a3.842,3.842,0,0,1,3.1,3.766v.079A3.841,3.841,0,0,1,16.3,18.591H3a3,3,0,0,0-3,3v.874a.771.771,0,0,0,.771.771h.778v2.327a.771.771,0,0,0,.771.771h3.1a.771.771,0,0,0,.771-.771V23.232H20.14v2.327a.771.771,0,0,0,.771.771h3.1a.771.771,0,0,0,.771-.771V23.232h.778a.771.771,0,0,0,.771-.771v-.874A3,3,0,0,0,23.829,18.632ZM10.838,1.543h4.654V3.1H10.838Zm3.1,13.949H12.387V13.937h1.556Zm1.549-3.1H10.838V4.641h4.654Zm6.19,2.36v-.079a5.388,5.388,0,0,0-4.648-5.33V7.781a6.975,6.975,0,0,1,6.2,6.924v.01a6.91,6.91,0,0,1-1.176,3.876H20.07A5.364,5.364,0,0,0,21.683,14.754ZM1.543,21.586A1.454,1.454,0,0,1,3,20.133H9.3v1.556H1.543Zm3.1,3.2H3.092V23.232H4.648Zm6.19-3.1V20.133h4.654v1.556Zm12.4,3.1H21.683V23.232h1.556Zm1.549-3.1H17.035V20.133h6.3a1.454,1.454,0,0,1,1.453,1.453Z" transform="translate(0 0)"/></svg>