<svg xmlns="http://www.w3.org/2000/svg" width="27.924" height="29.981" viewBox="0 0 27.924 29.981"><defs><style>.a{fill:#94b2e6;}</style></defs><g transform="translate(-17.5)"><path class="a" d="M17.5,5.291h1.764V25.572a4.409,4.409,0,1,0,8.818,0V5.291h1.764V0H17.5Zm3.527,12.345h1.764V15.872H21.027V14.109h3.527V12.345H21.027V10.582h5.291V19.4H21.027Zm2.645,10.582a2.648,2.648,0,0,1-2.645-2.645V21.163h5.291v4.409A2.648,2.648,0,0,1,23.673,28.218Zm2.645-19.4H21.027V5.291h5.291ZM22.791,3.527V1.764h1.764V3.527Zm5.291,0H26.318V1.764h1.764ZM19.264,1.764h1.764V3.527H19.264Z"/><path class="a" d="M265.051,70.7l-5.5-8.637-5.5,8.637a9.95,9.95,0,0,0-1.558,5.351,7.054,7.054,0,1,0,14.109,0A9.95,9.95,0,0,0,265.051,70.7Zm-5.5,10.641a5.3,5.3,0,0,1-5.291-5.291,8.19,8.19,0,0,1,1.282-4.4l4.008-6.3,4.008,6.3a8.19,8.19,0,0,1,1.282,4.4A5.3,5.3,0,0,1,259.554,81.339Z" transform="translate(-221.185 -58.413)"/><path class="a" d="M331.027,250h-1.764v1.764H327.5v1.764h1.764v1.764h1.764v-1.764h1.764v-1.764h-1.764Z" transform="translate(-291.776 -235.303)"/></g></svg>