<svg xmlns="http://www.w3.org/2000/svg" width="26" height="26" viewBox="0 0 26 26"><defs><style>.a{fill:#94b2e6;}</style></defs><path class="a" d="M17.589,9.179a8.359,8.359,0,0,0-3.828.923V6.881A6.881,6.881,0,0,0,0,6.881v12.2a6.877,6.877,0,0,0,11.9,4.7,8.409,8.409,0,1,0,5.687-14.6Zm0,15.3a6.9,6.9,0,0,1-6.845-6.125h13.69A6.9,6.9,0,0,1,17.589,24.477Zm-6.845-7.649a6.887,6.887,0,0,1,13.69,0ZM6.881,1.523a5.363,5.363,0,0,1,5.357,5.357v4.224a8.487,8.487,0,0,0-1.117,1.114h-9.6V6.881A5.363,5.363,0,0,1,6.881,1.523Zm0,22.915a5.363,5.363,0,0,1-5.357-5.357V13.743h8.588a8.4,8.4,0,0,0,.763,8.905A5.345,5.345,0,0,1,6.881,24.438Z"/></svg>