<svg xmlns="http://www.w3.org/2000/svg" width="24.179" height="22.782" viewBox="0 0 24.179 22.782"><defs><style>.a{fill:#94b2e6;}</style></defs><g transform="translate(0 -14.717)"><path class="a" d="M22.307,26.108V21.124H19.459V14.717H2.848v3.56H0V37.5H21.2l2.983-11.391Zm-1.424-3.56v3.56H19.459v-3.56Zm-2.848-6.407v9.967H12.815V24.74a2.4,2.4,0,0,0-.821-1.81l-.79-.691a2.359,2.359,0,0,0,.425-1.352v-.949a2.373,2.373,0,1,0-4.746,0v.949a2.359,2.359,0,0,0,.425,1.352l-.79.691A2.4,2.4,0,0,0,5.7,24.74v1.368H4.272V16.141ZM10.2,20.887a.949.949,0,0,1-1.9,0v-.949a.949.949,0,0,1,1.9,0ZM7.454,24l1.005-.88a2.368,2.368,0,0,0,1.591,0l1.005.88a.981.981,0,0,1,.335.738v1.368H7.119V24.74A.98.98,0,0,1,7.454,24Zm-6.03-4.3H2.848v7.02L1.424,31.7ZM20.1,36.075H1.656L4.1,27.532H22.334Z"/><path class="a" d="M275,74.717h4.034v1.424H275Z" transform="translate(-261.948 -57.152)"/><path class="a" d="M305,134.717h2.61v1.424H305Z" transform="translate(-290.524 -114.305)"/></g></svg>