<svg xmlns="http://www.w3.org/2000/svg" width="40.137" height="40.137" viewBox="0 0 40.137 40.137"><defs><style>.a{fill:#ff4a31;}.b{fill:#fff;}</style></defs><g transform="translate(0.181)"><circle class="a" cx="20.068" cy="20.068" r="20.068" transform="translate(-0.181)"/><g transform="translate(8.895 9.076)"><path class="b" d="M1.326.529a.8.8,0,0,0-.8.8V22.131a.8.8,0,0,0,.8.8H22.131a.8.8,0,0,0,.8-.8V7.727a.8.8,0,0,0-.8-.8H11.725v-5.6a.8.8,0,0,0-.8-.8Zm.8,1.6h8v19.2h-1.6v-4a.8.8,0,0,0-.8-.8h-3.2a.8.8,0,0,0-.8.8v4h-1.6ZM6.116,3.718a.8.8,0,0,0-.786.809v.8h-.8q-.038,0-.077,0a.8.8,0,1,0,.077,1.6h.8v.8a.8.8,0,1,0,1.6,0v-.8h.8a.8.8,0,1,0,0-1.6h-.8v-.8a.8.8,0,0,0-.814-.809Zm5.609,4.814h9.6v12.8h-1.6v-4a.8.8,0,0,0-.8-.8h-4.8a.8.8,0,0,0-.8.8v4h-1.6Zm-3.915,1.6a.8.8,0,0,0-.088,0H4.54a.8.8,0,0,0-.083,0,.8.8,0,0,0,.083,1.594H7.723a.8.8,0,1,0,.088-1.6Zm11.2,0a.8.8,0,0,0-.088,0H14.141a.8.8,0,0,0,0,1.594h4.778a.8.8,0,1,0,.088-1.6ZM4.54,13.325a.8.8,0,1,0,0,1.6H7.723a.8.8,0,0,0,0-1.6Zm9.6,0a.8.8,0,1,0,0,1.6h4.778a.8.8,0,0,0,0-1.6Zm-8.81,4.8h1.6v3.2H5.33Zm9.6,0h3.2v3.2h-3.2Z" transform="translate(-0.529 -0.529)"/></g></g></svg>