<svg xmlns="http://www.w3.org/2000/svg" width="38" height="38" viewBox="0 0 38 38"><defs><style>.a{fill:#064862;}.b{fill:#fff;stroke:#fff;stroke-miterlimit:10;stroke-width:0.5px;}</style></defs><g transform="translate(0.514 0.333)"><circle class="a" cx="19" cy="19" r="19" transform="translate(-0.514 -0.333)"/><g transform="translate(6.452 7.561)"><path class="b" d="M35.319,36.795h2.464a.382.382,0,0,0,.382-.382v-2.7a.382.382,0,0,0-.382-.382H35.319a.382.382,0,0,0-.382.382v2.7a.382.382,0,0,0,.382.382Zm.382-2.7h1.7v1.94H35.7Z" transform="translate(-27.085 -27.354)"/><path class="b" d="M53.141,36.795H55.6a.382.382,0,0,0,.382-.382v-2.7a.382.382,0,0,0-.382-.382H53.141a.382.382,0,0,0-.382.382v2.7a.382.382,0,0,0,.382.382Zm.382-2.7h1.7v1.94h-1.7Z" transform="translate(-40.232 -27.354)"/><path class="b" d="M37.782,54.981a.382.382,0,0,0,.382-.382V51.9a.382.382,0,0,0-.382-.382H35.319a.382.382,0,0,0-.382.382v2.7a.382.382,0,0,0,.382.382Zm-2.082-2.7h1.7v1.94H35.7Z" transform="translate(-27.085 -40.769)"/><path class="b" d="M53.141,54.981H55.6a.382.382,0,0,0,.382-.382V51.9a.382.382,0,0,0-.382-.382H53.141a.382.382,0,0,0-.382.382v2.7a.382.382,0,0,0,.382.382Zm.382-2.7h1.7v1.94h-1.7Z" transform="translate(-40.232 -40.769)"/><path class="b" d="M28.432,20.216,22.992,16.7V13.223a.382.382,0,0,0-.382-.382h-3.3a2.518,2.518,0,0,0-5.015,0H11a.382.382,0,0,0-.382.382V16.7l-5.44,3.518A.382.382,0,0,0,5,20.537V30.863a.382.382,0,0,0,.382.382H28.225a.382.382,0,0,0,.382-.382V20.537a.382.382,0,0,0-.174-.321ZM16.8,11.313a1.756,1.756,0,1,1-1.756,1.756A1.756,1.756,0,0,1,16.8,11.313ZM5.763,20.745l4.851-3.137V30.482H5.763Zm5.615-3.838V13.6h2.965a2.518,2.518,0,0,0,4.921,0h2.965V30.482H18.306V26.517a.382.382,0,0,0-.382-.382H15.46a.382.382,0,0,0-.382.382v3.965h-3.7Zm4.464,13.576V26.9h1.7v3.583Zm12,0H22.992V17.607l4.851,3.137Z" transform="translate(-5 -10.55)"/><path class="b" d="M77.389,54.981h2.464a.382.382,0,0,0,.382-.382V51.9a.382.382,0,0,0-.382-.382H77.389a.382.382,0,0,0-.382.382v2.7a.382.382,0,0,0,.382.382Zm.382-2.7h1.7v1.94h-1.7Z" transform="translate(-58.12 -40.769)"/><path class="b" d="M13.535,51.514H11.071a.382.382,0,0,0-.382.382v2.7a.382.382,0,0,0,.382.382h2.464a.382.382,0,0,0,.382-.382V51.9a.382.382,0,0,0-.382-.382Zm-.382,2.7h-1.7v-1.94h1.7Z" transform="translate(-9.197 -40.769)"/><path class="b" d="M45.592,17h.493v.493a.382.382,0,1,0,.763,0V17h.493a.382.382,0,0,0,0-.763h-.493v-.493a.382.382,0,1,0-.763,0v.493h-.493a.382.382,0,1,0,0,.763Z" transform="translate(-34.664 -14.101)"/></g></g></svg>