<svg xmlns="http://www.w3.org/2000/svg" xmlns:xlink="http://www.w3.org/1999/xlink" width="142.742" height="141.742" viewBox="0 0 142.742 141.742"><defs><style>.a{fill:none;}.b{fill:#100f47;}.c{clip-path:url(#a);}.d{opacity:0.5;}.e{fill:#fff;}.f{fill:#ee4b3c;}.g{fill:#0c024a;}</style><clipPath id="a"><ellipse class="a" cx="65.034" cy="64.534" rx="65.034" ry="64.534"/></clipPath></defs><g transform="translate(741.133 101.406)"><g transform="translate(-741.133 -101.406)"><g transform="translate(0 0)"><ellipse class="b" cx="71.371" cy="70.871" rx="71.371" ry="70.871"/></g></g><g transform="translate(-734.795 -95.069)"><g transform="translate(0 0)"><g class="c"><g class="d" transform="translate(-45.737 -46.184)"><g transform="translate(0 0)"><path class="e" d="M0,0,158.183.61l0,.624L0,.624Z" transform="translate(0 111.421) rotate(-45)"/></g><g transform="translate(3.039 3.016)"><path class="e" d="M0,0,158.183.61l0,.624L0,.624Z" transform="translate(0 111.421) rotate(-45)"/></g><g transform="translate(6.079 6.032)"><path class="e" d="M0,0,158.183.61l0,.624L0,.624Z" transform="translate(0 111.421) rotate(-45)"/></g><g transform="translate(9.118 9.048)"><path class="e" d="M0,0,158.183.61l0,.624L0,.624Z" transform="translate(0 111.421) rotate(-45)"/></g><g transform="translate(12.157 12.064)"><path class="e" d="M0,0,158.183.61l0,.624L0,.624Z" transform="translate(0 111.421) rotate(-45)"/></g><g transform="translate(15.196 15.08)"><path class="e" d="M0,0,158.183.61l0,.624L0,.624Z" transform="translate(0 111.421) rotate(-45)"/></g><g transform="translate(18.236 18.095)"><path class="e" d="M0,0,158.183.61l0,.624L0,.624Z" transform="translate(0 111.421) rotate(-45)"/></g><g transform="translate(21.269 21.117)"><path class="e" d="M0,0,158.183.61l0,.624L0,.624Z" transform="translate(0 111.409) rotate(-44.994)"/></g><g transform="translate(24.303 24.139)"><path class="e" d="M0,0,158.183.61l0,.625L0,.625Z" transform="translate(0 111.398) rotate(-44.988)"/></g><g transform="translate(27.342 27.155)"><path class="e" d="M0,0,158.183.61l0,.625L0,.625Z" transform="translate(0 111.398) rotate(-44.988)"/></g><g transform="translate(30.381 30.17)"><path class="e" d="M0,0,158.183.61l0,.625L0,.625Z" transform="translate(0 111.398) rotate(-44.988)"/></g><g transform="translate(33.421 33.186)"><path class="e" d="M0,0,158.183.61l0,.625L0,.625Z" transform="translate(0 111.398) rotate(-44.988)"/></g><g transform="translate(36.46 36.202)"><path class="e" d="M0,0,158.183.61l0,.625L0,.625Z" transform="translate(0 111.398) rotate(-44.988)"/></g><g transform="translate(39.499 39.218)"><path class="e" d="M0,0,158.183.61l0,.625L0,.625Z" transform="translate(0 111.398) rotate(-44.988)"/></g><g transform="translate(42.539 42.234)"><path class="e" d="M0,0,158.183.61l0,.625L0,.625Z" transform="translate(0 111.398) rotate(-44.988)"/></g><g transform="translate(45.578 45.25)"><path class="e" d="M0,0,158.183.61l0,.625L0,.625Z" transform="translate(0 111.398) rotate(-44.988)"/></g><g transform="translate(48.617 48.266)"><path class="e" d="M0,0,158.183.61l0,.625L0,.625Z" transform="translate(0 111.398) rotate(-44.988)"/></g><g transform="translate(51.656 51.282)"><path class="e" d="M0,0,158.183.61l0,.625L0,.625Z" transform="translate(0 111.398) rotate(-44.988)"/></g><g transform="translate(54.696 54.298)"><path class="e" d="M0,0,158.183.61l0,.625L0,.625Z" transform="translate(0 111.398) rotate(-44.988)"/></g><g transform="translate(57.735 57.314)"><path class="e" d="M0,0,158.183.61l0,.625L0,.625Z" transform="translate(0 111.398) rotate(-44.988)"/></g><g transform="translate(60.774 60.33)"><path class="e" d="M0,0,158.183.61l0,.625L0,.625Z" transform="translate(0 111.398) rotate(-44.988)"/></g><g transform="translate(63.814 63.346)"><path class="e" d="M0,0,158.183.61l0,.625L0,.625Z" transform="translate(0 111.398) rotate(-44.988)"/></g><g transform="translate(66.853 66.361)"><path class="e" d="M0,0,158.183.61l0,.625L0,.625Z" transform="translate(0 111.398) rotate(-44.988)"/></g><g transform="translate(69.892 69.377)"><path class="e" d="M0,0,158.183.61l0,.625L0,.625Z" transform="translate(0 111.398) rotate(-44.988)"/></g><g transform="translate(72.931 72.393)"><path class="e" d="M0,0,158.183.61l0,.625L0,.625Z" transform="translate(0 111.398) rotate(-44.988)"/></g><g transform="translate(75.971 75.409)"><path class="e" d="M0,0,158.183.61l0,.625L0,.625Z" transform="translate(0 111.398) rotate(-44.988)"/></g><g transform="translate(79.01 78.425)"><path class="e" d="M0,0,158.183.61l0,.625L0,.625Z" transform="translate(0 111.398) rotate(-44.988)"/></g><g transform="translate(82.049 81.441)"><path class="e" d="M0,0,158.183.61l0,.625L0,.625Z" transform="translate(0 111.398) rotate(-44.988)"/></g><g transform="translate(85.088 84.457)"><path class="e" d="M0,0,158.183.61l0,.625L0,.625Z" transform="translate(0 111.398) rotate(-44.988)"/></g><g transform="translate(88.128 87.473)"><path class="e" d="M0,0,158.183.61l0,.625L0,.625Z" transform="translate(0 111.398) rotate(-44.988)"/></g><g transform="translate(91.167 90.489)"><path class="e" d="M0,0,158.183.61l0,.625L0,.625Z" transform="translate(0 111.398) rotate(-44.988)"/></g><g transform="translate(94.206 93.505)"><path class="e" d="M0,0,158.183.61l0,.625L0,.625Z" transform="translate(0 111.398) rotate(-44.988)"/></g><g transform="translate(97.246 96.521)"><path class="e" d="M0,0,158.183.61l0,.625L0,.625Z" transform="translate(0 111.398) rotate(-44.988)"/></g><g transform="translate(100.285 99.537)"><path class="e" d="M0,0,158.183.61l0,.625L0,.625Z" transform="translate(0 111.398) rotate(-44.988)"/></g><g transform="translate(103.324 102.553)"><path class="e" d="M0,0,158.183.61l0,.625L0,.625Z" transform="translate(0 111.398) rotate(-44.988)"/></g><g transform="translate(106.363 105.568)"><path class="e" d="M0,0,158.183.61l0,.625L0,.625Z" transform="translate(0 111.398) rotate(-44.988)"/></g><g transform="translate(109.403 108.584)"><path class="e" d="M0,0,158.183.61l0,.625L0,.625Z" transform="translate(0 111.398) rotate(-44.988)"/></g></g></g></g><g transform="translate(15.529 15.529)"><g transform="translate(0 0)"><ellipse class="e" cx="49.505" cy="49.005" rx="49.505" ry="49.005"/></g></g><g transform="translate(20.023 19.523)"><g transform="translate(0 0)"><path class="b" d="M-554.362,130.374a44.717,44.717,0,0,1-31.827-13.183,44.716,44.716,0,0,1-13.183-31.827A44.716,44.716,0,0,1-586.19,53.536a44.716,44.716,0,0,1,31.827-13.184,44.715,44.715,0,0,1,31.827,13.184,44.716,44.716,0,0,1,13.183,31.827,44.716,44.716,0,0,1-13.183,31.827A44.716,44.716,0,0,1-554.362,130.374Zm0-87.514a42.551,42.551,0,0,0-42.5,42.5,42.551,42.551,0,0,0,42.5,42.5,42.551,42.551,0,0,0,42.5-42.5A42.551,42.551,0,0,0-554.362,42.861Z" transform="translate(599.373 -40.353)"/></g></g><g transform="translate(36.222 49.716)"><path class="b" d="M-512.261,202.5h16.386l-.031,4.324h-10.632v4.62h9.819v4.324h-9.819v7.492h-5.722Z" transform="translate(512.261 -202.503)"/><g transform="translate(20.545)"><path class="b" d="M-401.777,202.5h5.722v20.759h-5.722Z" transform="translate(401.777 -202.503)"/></g><g transform="translate(32.083)"><path class="b" d="M-339.726,202.5H-334v20.759h-5.722Z" transform="translate(339.726 -202.503)"/></g><g transform="translate(41.713)"><path class="b" d="M-287.935,202.5h18.793v4.472h-6.567v16.287h-5.722V206.975h-6.5Z" transform="translate(287.935 -202.503)"/></g></g><g transform="translate(60.298 3.089)"><path class="f" d="M-382.783-41.911l4.736-8.8,4.736,8.8Z" transform="translate(382.783 50.712)"/></g><g transform="translate(1.736 59.798)"><path class="f" d="M-688.918,266.415l-8.8-4.736,8.8-4.736Z" transform="translate(697.719 -256.943)"/></g><g transform="translate(97.367 100.913)"><g transform="translate(0 0)"><path class="f" d="M-172.647,496.695l-10.787-7.977,10.787-7.977Z" transform="translate(183.434 -480.74)"/></g></g><g transform="translate(102.865 100.913)"><g transform="translate(0 0)"><path class="f" d="M-143.081,496.695l-10.787-7.977,10.787-7.977Z" transform="translate(153.868 -480.74)"/></g></g></g><g transform="translate(-695.631 -19.745)"><g transform="translate(0 0.241)"><path class="g" d="M-493.3,342.4l-1.314,2.307v1.2h-.481v-1.184l-1.334-2.327h.491l1.083,1.791,1.063-1.791Z" transform="translate(496.434 -342.397)"/></g><g transform="translate(3.084 1.083)"><path class="g" d="M-477.779,347.1a1.226,1.226,0,0,1,.482.474,1.377,1.377,0,0,1,.173.695,1.39,1.39,0,0,1-.173.7,1.222,1.222,0,0,1-.482.477,1.432,1.432,0,0,1-.7.171,1.443,1.443,0,0,1-.71-.171,1.227,1.227,0,0,1-.481-.474,1.388,1.388,0,0,1-.173-.7,1.378,1.378,0,0,1,.173-.695,1.226,1.226,0,0,1,.481-.474,1.444,1.444,0,0,1,.71-.171A1.432,1.432,0,0,1-477.779,347.1Zm-1.168.356a.83.83,0,0,0-.316.333,1.02,1.02,0,0,0-.113.484,1.044,1.044,0,0,0,.113.491.81.81,0,0,0,.316.334.907.907,0,0,0,.464.118.9.9,0,0,0,.459-.118.81.81,0,0,0,.316-.334,1.042,1.042,0,0,0,.113-.491,1.018,1.018,0,0,0-.113-.484.83.83,0,0,0-.316-.333.882.882,0,0,0-.459-.12A.892.892,0,0,0-478.948,347.456Z" transform="translate(479.848 -346.929)"/></g><g transform="translate(6.369 1.098)"><path class="g" d="M-459.743,347.009v2.653h-.471V349.1a1,1,0,0,1-.983.577.951.951,0,0,1-.722-.273,1.049,1.049,0,0,1-.261-.755v-1.64h.471v1.515a.72.72,0,0,0,.183.524.671.671,0,0,0,.5.188.746.746,0,0,0,.589-.263.986.986,0,0,0,.218-.66v-1.3Z" transform="translate(462.181 -347.009)"/></g><g transform="translate(9.715 1.083)"><path class="g" d="M-443.353,347.082a1.1,1.1,0,0,1,.572-.153v.451a.892.892,0,0,0-.657.211.892.892,0,0,0-.286.607v1.4h-.466v-2.653h.466v.572A.96.96,0,0,1-443.353,347.082Z" transform="translate(444.191 -346.929)"/></g><g transform="translate(12.97 0.03)"><path class="g" d="M-424.474,342.591a1.037,1.037,0,0,1,.266.755v1.64h-.466v-1.515a.708.708,0,0,0-.188-.524.7.7,0,0,0-.519-.188.79.79,0,0,0-.612.261.964.964,0,0,0-.226.662v1.3h-.466v-3.722h.466v1.64a1.026,1.026,0,0,1,1.013-.587A.974.974,0,0,1-424.474,342.591Z" transform="translate(426.686 -341.264)"/></g><g transform="translate(16.019 1.083)"><path class="g" d="M-408.031,347.292a1.491,1.491,0,0,1,.316,1.011c0,.067,0,.117-.005.15h-2.1a.9.9,0,0,0,.3.567.883.883,0,0,0,.6.211,1.12,1.12,0,0,0,.439-.085,1.056,1.056,0,0,0,.353-.241l.256.266a1.339,1.339,0,0,1-.472.326,1.573,1.573,0,0,1-.612.115,1.408,1.408,0,0,1-.695-.168,1.181,1.181,0,0,1-.472-.474,1.425,1.425,0,0,1-.168-.7,1.411,1.411,0,0,1,.168-.695,1.225,1.225,0,0,1,.469-.476,1.354,1.354,0,0,1,.687-.173A1.169,1.169,0,0,1-408.031,347.292Zm-.105.8a.811.811,0,0,0-.241-.569.814.814,0,0,0-.582-.208.839.839,0,0,0-.584.211.882.882,0,0,0-.278.567Z" transform="translate(410.288 -346.929)"/></g><g transform="translate(19.003 1.083)"><path class="g" d="M-392.394,349.6v-.371a1.089,1.089,0,0,1-.928.391,1.056,1.056,0,0,1-.484-.105.774.774,0,0,1-.321-.291.786.786,0,0,1-.113-.416.681.681,0,0,1,.263-.564,1.18,1.18,0,0,1,.735-.213h.843V347.9a.549.549,0,0,0-.173-.434.74.74,0,0,0-.5-.153,1.444,1.444,0,0,0-.818.286l-.2-.321a2.441,2.441,0,0,1,.529-.269,1.8,1.8,0,0,1,.579-.083,1.109,1.109,0,0,1,.767.243.882.882,0,0,1,.276.679l0,1.746Zm-.278-.524a.623.623,0,0,0,.273-.419v-.266h-.777a.908.908,0,0,0-.469.1.328.328,0,0,0-.153.3.39.39,0,0,0,.155.326.662.662,0,0,0,.416.121A.95.95,0,0,0-392.672,349.073Z" transform="translate(394.24 -346.929)"/></g><g transform="translate(22.168 0.03)"><path class="g" d="M-377.221,341.264h.467v3.722h-.467Z" transform="translate(377.221 -341.264)"/></g><g transform="translate(23.291 0.476)"><path class="g" d="M-369.474,346.764a1.143,1.143,0,0,1-.622.2.707.707,0,0,1-.512-.188.755.755,0,0,1-.2-.569v-1.47h-.376v-.356h.376v-.712h.471v.712h.813v.356h-.813v1.384a.49.49,0,0,0,.08.316.3.3,0,0,0,.241.1.842.842,0,0,0,.411-.125Z" transform="translate(371.179 -343.665)"/></g><g transform="translate(25.588 0.03)"><path class="g" d="M-356.614,342.591a1.037,1.037,0,0,1,.266.755v1.64h-.466v-1.515a.708.708,0,0,0-.188-.524.7.7,0,0,0-.519-.188.789.789,0,0,0-.612.261.964.964,0,0,0-.226.662v1.3h-.467v-3.722h.467v1.64a1.026,1.026,0,0,1,1.013-.587A.973.973,0,0,1-356.614,342.591Z" transform="translate(358.826 -341.264)"/></g><g transform="translate(28.688 3.22)"><path class="g" d="M-341.689,358.5a.283.283,0,0,1,.078.206.292.292,0,0,1-.078.208.255.255,0,0,1-.193.083.262.262,0,0,1-.2-.083.287.287,0,0,1-.08-.208.279.279,0,0,1,.08-.206.267.267,0,0,1,.2-.08A.259.259,0,0,1-341.689,358.5Z" transform="translate(342.158 -358.418)"/></g><g transform="translate(30.809 0.241)"><path class="g" d="M-327.619,342.4l-1.314,2.307v1.2h-.481v-1.184l-1.334-2.327h.492l1.083,1.791,1.063-1.791Z" transform="translate(330.749 -342.397)"/></g><g transform="translate(33.894 1.083)"><path class="g" d="M-312.092,347.1a1.227,1.227,0,0,1,.482.474,1.379,1.379,0,0,1,.173.695,1.391,1.391,0,0,1-.173.7,1.224,1.224,0,0,1-.482.477,1.432,1.432,0,0,1-.7.171,1.444,1.444,0,0,1-.71-.171,1.227,1.227,0,0,1-.481-.474,1.386,1.386,0,0,1-.173-.7,1.376,1.376,0,0,1,.173-.695,1.226,1.226,0,0,1,.481-.474,1.444,1.444,0,0,1,.71-.171A1.433,1.433,0,0,1-312.092,347.1Zm-1.168.356a.83.83,0,0,0-.316.333,1.018,1.018,0,0,0-.113.484,1.042,1.042,0,0,0,.113.491.81.81,0,0,0,.316.334.906.906,0,0,0,.464.118.9.9,0,0,0,.459-.118.812.812,0,0,0,.316-.334,1.045,1.045,0,0,0,.113-.491,1.02,1.02,0,0,0-.113-.484.832.832,0,0,0-.316-.333.882.882,0,0,0-.459-.12A.891.891,0,0,0-313.261,347.456Z" transform="translate(314.161 -346.929)"/></g><g transform="translate(37.179 1.098)"><path class="g" d="M-294.058,347.009v2.653h-.471V349.1a1,1,0,0,1-.983.577.952.952,0,0,1-.722-.273,1.05,1.05,0,0,1-.261-.755v-1.64h.471v1.515a.72.72,0,0,0,.183.524.671.671,0,0,0,.5.188.746.746,0,0,0,.59-.263.986.986,0,0,0,.218-.66v-1.3Z" transform="translate(296.495 -347.009)"/></g><g transform="translate(40.524 1.083)"><path class="g" d="M-277.668,347.082a1.1,1.1,0,0,1,.572-.153v.451a.893.893,0,0,0-.657.211.893.893,0,0,0-.286.607v1.4h-.466v-2.653h.466v.572A.962.962,0,0,1-277.668,347.082Z" transform="translate(278.506 -346.929)"/></g><g transform="translate(43.779 0.03)"><path class="g" d="M-261,341.264h.467v3.722H-261Z" transform="translate(261.001 -341.264)"/></g><g transform="translate(45.123 0.04)"><path class="g" d="M-253.273,341.4a.3.3,0,0,1,.083.216.3.3,0,0,1-.083.216.277.277,0,0,1-.208.085.277.277,0,0,1-.208-.085.3.3,0,0,1-.083-.216.3.3,0,0,1,.083-.216.277.277,0,0,1,.208-.085A.278.278,0,0,1-253.273,341.4Zm-.439.973h.467v2.653h-.467Z" transform="translate(253.772 -341.319)"/></g><g transform="translate(46.302)"><path class="g" d="M-246.5,341.63a.407.407,0,0,0-.12.316v.346h.732v.356h-.732v2.207h-.466v-2.207h-.346v-.356h.346v-.286a.938.938,0,0,1,.123-.494.8.8,0,0,1,.324-.306.931.931,0,0,1,.431-.1,1.032,1.032,0,0,1,.461.12l-.11.381a.8.8,0,0,0-.341-.085A.428.428,0,0,0-246.5,341.63Z" transform="translate(247.434 -341.103)"/></g><g transform="translate(47.962 1.083)"><g transform="translate(0)"><path class="g" d="M-236.25,347.292a1.491,1.491,0,0,1,.316,1.011c0,.067,0,.117-.005.15h-2.1a.905.905,0,0,0,.3.567.883.883,0,0,0,.6.211,1.12,1.12,0,0,0,.439-.085,1.056,1.056,0,0,0,.353-.241l.256.266a1.339,1.339,0,0,1-.472.326,1.573,1.573,0,0,1-.612.115,1.408,1.408,0,0,1-.695-.168,1.179,1.179,0,0,1-.472-.474,1.423,1.423,0,0,1-.168-.7,1.409,1.409,0,0,1,.168-.695,1.224,1.224,0,0,1,.469-.476,1.355,1.355,0,0,1,.687-.173A1.169,1.169,0,0,1-236.25,347.292Zm-.105.8a.812.812,0,0,0-.241-.569.814.814,0,0,0-.582-.208.839.839,0,0,0-.584.211.882.882,0,0,0-.278.567Z" transform="translate(238.507 -346.929)"/></g></g><g transform="translate(50.961 3.22)"><g transform="translate(0)"><path class="g" d="M-221.909,358.5a.284.284,0,0,1,.078.206.293.293,0,0,1-.078.208.255.255,0,0,1-.193.083.263.263,0,0,1-.2-.083.288.288,0,0,1-.08-.208.279.279,0,0,1,.08-.206.267.267,0,0,1,.2-.08A.259.259,0,0,1-221.909,358.5Z" transform="translate(222.378 -358.418)"/></g></g><g transform="translate(5.564 6.259)"><path class="g" d="M-463.381,374.763l-1.314,2.307v1.2h-.481V377.09l-1.334-2.327h.492l1.083,1.791,1.063-1.791Z" transform="translate(466.511 -374.763)"/></g><g transform="translate(8.649 7.102)"><path class="g" d="M-447.855,379.466a1.227,1.227,0,0,1,.482.474,1.378,1.378,0,0,1,.173.695,1.392,1.392,0,0,1-.173.7,1.221,1.221,0,0,1-.482.477,1.432,1.432,0,0,1-.7.171,1.443,1.443,0,0,1-.71-.171,1.225,1.225,0,0,1-.481-.474,1.389,1.389,0,0,1-.173-.7,1.379,1.379,0,0,1,.173-.695,1.227,1.227,0,0,1,.481-.474,1.444,1.444,0,0,1,.71-.171A1.433,1.433,0,0,1-447.855,379.466Zm-1.169.356a.832.832,0,0,0-.316.333,1.022,1.022,0,0,0-.113.484,1.045,1.045,0,0,0,.113.491.811.811,0,0,0,.316.334.908.908,0,0,0,.464.118.9.9,0,0,0,.459-.118.813.813,0,0,0,.316-.334,1.045,1.045,0,0,0,.113-.491,1.022,1.022,0,0,0-.113-.484.834.834,0,0,0-.316-.333.884.884,0,0,0-.459-.12A.894.894,0,0,0-449.024,379.822Z" transform="translate(449.924 -379.295)"/></g><g transform="translate(11.934 7.117)"><path class="g" d="M-429.819,379.375v2.653h-.472v-.562a1,1,0,0,1-.983.577.951.951,0,0,1-.722-.273,1.049,1.049,0,0,1-.261-.755v-1.64h.471v1.515a.72.72,0,0,0,.183.524.67.67,0,0,0,.5.188.745.745,0,0,0,.589-.263.987.987,0,0,0,.218-.66v-1.3Z" transform="translate(432.257 -379.375)"/></g><g transform="translate(15.013 6.048)"><path class="g" d="M-415.177,373.705a.267.267,0,0,1,.078.2.328.328,0,0,1-.022.115c-.015.04-.031.079-.048.115l-.271.572h-.256l.2-.567a.238.238,0,0,1-.105-.1.277.277,0,0,1-.035-.138.268.268,0,0,1,.078-.2.262.262,0,0,1,.193-.078A.261.261,0,0,1-415.177,373.705Z" transform="translate(415.696 -373.63)"/></g><g transform="translate(16.302 7.102)"><path class="g" d="M-407.928,379.448a1.1,1.1,0,0,1,.572-.153v.451a.894.894,0,0,0-.657.211.893.893,0,0,0-.286.607v1.4h-.467V379.31h.467v.572A.959.959,0,0,1-407.928,379.448Z" transform="translate(408.766 -379.295)"/></g><g transform="translate(17.957 7.102)"><path class="g" d="M-397.607,379.659a1.492,1.492,0,0,1,.316,1.011c0,.067,0,.117-.005.15h-2.1a.9.9,0,0,0,.3.567.884.884,0,0,0,.6.211,1.117,1.117,0,0,0,.439-.085,1.053,1.053,0,0,0,.354-.241l.256.266a1.34,1.34,0,0,1-.472.326,1.573,1.573,0,0,1-.612.115,1.41,1.41,0,0,1-.695-.168,1.182,1.182,0,0,1-.472-.474,1.425,1.425,0,0,1-.168-.7,1.41,1.41,0,0,1,.168-.695,1.226,1.226,0,0,1,.469-.476,1.354,1.354,0,0,1,.687-.173A1.17,1.17,0,0,1-397.607,379.659Zm-.105.8a.81.81,0,0,0-.241-.569.813.813,0,0,0-.582-.208.839.839,0,0,0-.584.211.883.883,0,0,0-.278.567Z" transform="translate(399.864 -379.295)"/></g><g transform="translate(22.421 6.059)"><path class="g" d="M-375.36,373.77a.3.3,0,0,1,.083.216.3.3,0,0,1-.083.215.277.277,0,0,1-.208.085.277.277,0,0,1-.208-.085.3.3,0,0,1-.083-.215.3.3,0,0,1,.083-.216.277.277,0,0,1,.208-.085A.278.278,0,0,1-375.36,373.77Zm-.439.973h.467V377.4h-.467Z" transform="translate(375.859 -373.685)"/></g><g transform="translate(23.855 7.102)"><path class="g" d="M-365.939,379.568a1.037,1.037,0,0,1,.266.755v1.64h-.466v-1.515a.708.708,0,0,0-.188-.524.7.7,0,0,0-.519-.188.8.8,0,0,0-.579.228.9.9,0,0,0-.253.579v1.419h-.466V379.31h.466v.562a1.024,1.024,0,0,1,1.008-.577A.974.974,0,0,1-365.939,379.568Z" transform="translate(368.146 -379.295)"/></g><g transform="translate(28.213 7.102)"><path class="g" d="M-343.344,379.711a.923.923,0,0,0-.464.115.818.818,0,0,0-.319.326,1,1,0,0,0-.115.487,1.017,1.017,0,0,0,.113.486.831.831,0,0,0,.311.329.874.874,0,0,0,.454.118,1.193,1.193,0,0,0,.461-.085.877.877,0,0,0,.341-.246l.266.271a1.172,1.172,0,0,1-.459.346,1.57,1.57,0,0,1-.629.12,1.369,1.369,0,0,1-.687-.171,1.207,1.207,0,0,1-.469-.474,1.41,1.41,0,0,1-.168-.695,1.425,1.425,0,0,1,.168-.7,1.2,1.2,0,0,1,.469-.476,1.37,1.37,0,0,1,.687-.171,1.681,1.681,0,0,1,.6.1,1.168,1.168,0,0,1,.449.3l-.256.321A1.05,1.05,0,0,0-343.344,379.711Z" transform="translate(344.708 -379.295)"/></g><g transform="translate(31.318 6.048)"><path class="g" d="M-325.8,374.957a1.037,1.037,0,0,1,.266.755v1.64H-326v-1.515a.708.708,0,0,0-.188-.524.7.7,0,0,0-.519-.188.79.79,0,0,0-.612.261.963.963,0,0,0-.226.662v1.3h-.467V373.63h.467v1.64a1.026,1.026,0,0,1,1.013-.587A.974.974,0,0,1-325.8,374.957Z" transform="translate(328.013 -373.63)"/></g><g transform="translate(34.402 7.102)"><path class="g" d="M-309.579,381.963v-.371a1.088,1.088,0,0,1-.928.391,1.057,1.057,0,0,1-.484-.105.773.773,0,0,1-.321-.291.785.785,0,0,1-.113-.416.681.681,0,0,1,.263-.564,1.18,1.18,0,0,1,.735-.213h.843v-.125a.548.548,0,0,0-.173-.434.738.738,0,0,0-.5-.153,1.443,1.443,0,0,0-.817.286l-.2-.321a2.419,2.419,0,0,1,.529-.268,1.8,1.8,0,0,1,.579-.083,1.11,1.11,0,0,1,.767.243.882.882,0,0,1,.276.679l.005,1.746Zm-.278-.524a.625.625,0,0,0,.273-.419v-.266h-.777a.906.906,0,0,0-.469.1.328.328,0,0,0-.153.3.391.391,0,0,0,.155.326.663.663,0,0,0,.416.12A.952.952,0,0,0-309.857,381.439Z" transform="translate(311.425 -379.295)"/></g><g transform="translate(37.542 7.102)"><path class="g" d="M-293.7,379.448a1.1,1.1,0,0,1,.572-.153v.451a.893.893,0,0,0-.657.211.893.893,0,0,0-.286.607v1.4h-.467V379.31h.467v.572A.959.959,0,0,1-293.7,379.448Z" transform="translate(294.541 -379.295)"/></g><g transform="translate(39.197 7.102)"><path class="g" d="M-283.032,379.31v2.383a1.293,1.293,0,0,1-.168.667,1.118,1.118,0,0,1-.474.439,1.574,1.574,0,0,1-.712.153,1.813,1.813,0,0,1-1.093-.371l.205-.341a1.419,1.419,0,0,0,.407.238,1.325,1.325,0,0,0,.461.078.922.922,0,0,0,.657-.231.807.807,0,0,0,.246-.617v-.371a.987.987,0,0,1-.381.374,1.124,1.124,0,0,1-.552.133,1.206,1.206,0,0,1-.629-.163,1.111,1.111,0,0,1-.424-.454,1.429,1.429,0,0,1-.151-.667,1.389,1.389,0,0,1,.151-.657,1.1,1.1,0,0,1,.424-.446,1.219,1.219,0,0,1,.629-.161,1.138,1.138,0,0,1,.554.13.975.975,0,0,1,.379.371v-.487Zm-.878,2.041a.807.807,0,0,0,.3-.318.965.965,0,0,0,.108-.459.975.975,0,0,0-.108-.464.808.808,0,0,0-.3-.319.825.825,0,0,0-.436-.115.838.838,0,0,0-.439.115.82.82,0,0,0-.3.319.957.957,0,0,0-.11.464.918.918,0,0,0,.241.642.8.8,0,0,0,.612.251A.826.826,0,0,0-283.91,381.351Z" transform="translate(285.64 -379.295)"/></g><g transform="translate(42.397 7.102)"><path class="g" d="M-266.176,379.659a1.491,1.491,0,0,1,.316,1.011q0,.1-.005.15h-2.1a.9.9,0,0,0,.3.567.883.883,0,0,0,.6.211,1.118,1.118,0,0,0,.439-.085,1.053,1.053,0,0,0,.353-.241l.256.266a1.338,1.338,0,0,1-.472.326,1.573,1.573,0,0,1-.612.115,1.41,1.41,0,0,1-.694-.168,1.181,1.181,0,0,1-.472-.474,1.423,1.423,0,0,1-.168-.7,1.409,1.409,0,0,1,.168-.695,1.224,1.224,0,0,1,.469-.476,1.355,1.355,0,0,1,.687-.173A1.17,1.17,0,0,1-266.176,379.659Zm-.105.8a.811.811,0,0,0-.241-.569.813.813,0,0,0-.582-.208.839.839,0,0,0-.584.211.883.883,0,0,0-.278.567Z" transform="translate(268.433 -379.295)"/></g><g transform="translate(45.396 9.238)"><path class="g" d="M-251.835,390.864a.284.284,0,0,1,.078.206.293.293,0,0,1-.078.208.254.254,0,0,1-.193.083.262.262,0,0,1-.2-.083.287.287,0,0,1-.08-.208.279.279,0,0,1,.08-.206.267.267,0,0,1,.2-.08A.259.259,0,0,1-251.835,390.864Z" transform="translate(252.304 -390.784)"/></g></g></g></svg>